# Blender v2.79 (sub 0) OBJ File: ''
# www.blender.org
mtllib hedge.mtl
o Hedge_10449_Rectangular_Box_Hedge_v1_SG
v 3.431567 0.018648 -1.188104
v 3.507677 4.616734 -0.814625
v 3.079046 4.760445 -0.864055
v 3.382946 0.065283 0.961853
v -2.931189 0.071903 -1.050758
v 3.497135 0.593880 0.880317
v -3.027184 -0.213364 1.162239
v -3.473523 0.027697 -1.046245
v -3.537182 1.343521 1.190709
v 3.315487 1.141889 -1.032093
v 3.435068 4.711023 1.291416
v -3.388255 4.499835 1.091209
v 3.317769 4.109477 -0.885062
v 3.644174 3.754022 1.233724
v -3.469725 3.770314 -0.888284
v -3.415306 -0.007322 -0.167261
v 3.598456 0.407681 -0.293360
v 3.555363 2.378955 0.003733
v 3.694051 2.863975 1.141587
v -3.495986 1.930187 1.055317
v 3.533958 4.743865 0.908496
v 2.738581 4.850565 1.153448
v -3.332985 3.821782 1.209061
v 3.486714 2.124067 1.063084
v -3.543196 2.952274 -0.964776
v -3.444621 2.105903 0.446304
v -3.393747 2.417026 -1.036875
v -3.174207 4.826965 -0.578759
v 3.378819 0.553822 -1.207058
v 3.557514 2.228463 -1.035137
v 3.505310 3.627675 -0.802284
v 2.224868 0.066745 -1.236492
v 2.331305 0.060110 0.948213
v 2.265845 2.953543 -0.965135
v 2.906877 3.817963 1.356681
v 2.668391 0.033807 -0.380922
v 2.494617 0.778845 1.052615
v 2.147290 2.850271 1.254414
v 0.248692 0.099150 -1.151224
v 0.433066 4.848355 -0.931214
v 1.132513 -0.082902 -1.048791
v -0.013450 2.793459 -1.030480
v -0.916704 2.127973 -1.044037
v 0.977199 2.282364 -1.138835
v 0.602921 3.795834 -1.045088
v 1.791061 4.735351 1.101758
v 1.102849 4.808225 -0.088978
v -3.269425 0.256906 1.185568
v -2.609273 -0.163724 0.940176
v -2.874798 2.572255 1.316625
v -2.682861 4.531513 1.122472
v -1.990957 4.701039 1.357821
v -2.121614 3.728261 1.260881
v -3.368391 4.581408 -1.038860
v -3.427101 4.593859 0.527056
v -2.207742 2.390998 -0.986208
v -2.505312 1.441272 -1.024206
v -2.735687 4.797130 -1.026314
v -2.528202 3.662226 -0.973468
v -1.109169 0.058405 1.157138
v 0.108643 0.024383 1.055036
v 0.238733 2.771386 1.197542
v -0.423710 4.718668 1.173304
v -0.406624 -0.084976 -0.105207
v -2.058148 4.697657 -0.815432
v -1.199251 4.891877 -0.955634
v -0.179923 4.808251 -0.953619
v -2.126199 -0.009137 1.020679
v -1.827539 0.016368 -1.115947
v 1.908175 1.454426 -1.068115
v 1.000793 1.087066 -0.963363
v 1.345597 4.539212 -0.988934
v -1.207310 4.092418 -1.141879
v -1.221489 4.800232 1.143340
v 2.363640 4.753611 -1.018480
v -1.535630 4.740378 0.557904
v 1.746158 1.302238 1.157316
v 1.247926 2.346473 1.079157
v -2.132790 1.455108 1.172208
v -1.197799 1.633352 1.222571
v 1.063119 4.139071 1.249930
v -1.050233 3.833936 1.078804
v 0.766269 3.567979 1.166389
v 1.081997 -0.025462 1.149512
v -1.702850 0.003836 0.070075
v -2.733018 3.534769 1.208684
v -3.532049 0.549505 -1.024845
v 3.413520 3.038835 -0.899120
v -3.503548 -0.107195 1.012044
v 3.448909 1.228336 -0.596411
v -3.593938 1.271737 -0.935357
v -3.480239 0.886934 -0.164345
v -3.316443 2.906627 1.040419
v 3.333148 1.230233 1.134023
v 2.474210 1.533690 -1.189926
v 2.492452 3.446799 -0.867048
v 1.740476 3.901014 -0.965707
v 2.414421 1.486666 1.029460
v 2.717452 3.228211 1.308771
v -1.526731 0.525098 1.113343
v -0.061204 0.617771 1.066150
v -1.898227 0.954836 -1.109577
v -1.995378 3.384770 -0.971317
v -1.069572 3.237151 -1.168355
v 0.014285 1.014740 -1.074500
v -1.151375 0.202702 -1.056848
v -1.227592 1.467378 -0.966575
v 1.178851 0.916508 1.294273
v -0.036694 1.883649 1.159238
v -1.551955 2.987447 1.263544
v -2.363166 2.239273 1.183820
v -0.740937 2.972735 1.046208
vt 0.692846 0.336895
vt 0.794804 0.351173
vt 0.787608 0.290155
vt 0.903194 0.672206
vt 0.809175 0.632050
vt 0.809479 0.687030
vt 0.203481 0.916662
vt 0.241147 0.836618
vt 0.196087 0.829382
vt 0.740261 0.491010
vt 0.795079 0.500896
vt 0.796373 0.463526
vt 0.254579 0.989404
vt 0.272811 0.848012
vt 0.062710 0.499100
vt 0.016354 0.517120
vt 0.146179 0.506049
vt 0.979202 0.581453
vt 0.982698 0.509777
vt 0.842208 0.506759
vt 0.196114 0.556946
vt 0.024941 0.575257
vt 0.734547 0.569525
vt 0.711353 0.248324
vt 0.691284 0.988936
vt 0.791991 0.989523
vt 0.719738 0.924200
vt 0.806375 0.835352
vt 0.705875 0.838282
vt 0.416278 0.150817
vt 0.499841 0.197332
vt 0.580844 0.170493
vt 0.467651 0.340029
vt 0.546571 0.350793
vt 0.548415 0.272310
vt 0.589165 0.397154
vt 0.236255 0.787310
vt 0.364077 0.801009
vt 0.257185 0.342156
vt 0.315990 0.345917
vt 0.280300 0.268103
vt 0.219599 0.373962
vt 0.262795 0.492601
vt 0.399141 0.569092
vt 0.454361 0.496338
vt 0.387345 0.486750
vt 0.656241 0.278054
vt 0.606056 0.342709
vt 0.368421 0.448217
vt 0.643509 0.492966
vt 0.576092 0.545467
vt 0.594260 0.833317
vt 0.322748 0.840792
vt 0.357633 0.914724
vt 0.406829 0.836182
vt 0.596976 0.990051
vt 0.504664 0.844447
vt 0.820119 0.794800
vt 0.909549 0.806923
vt 0.946769 0.744836
vt 0.015039 0.782313
vt 0.099990 0.823008
vt 0.085997 0.768075
vt 0.983466 0.758422
vt 0.983618 0.676737
vt 0.134075 0.678768
vt 0.033714 0.748150
vt 0.195907 0.615898
vt 0.012898 0.639289
vt 0.350493 0.627104
vt 0.303036 0.570065
vt 0.245570 0.639994
vt 0.200777 0.118207
vt 0.206781 0.167942
vt 0.212871 0.047866
vt 0.209113 0.212089
vt 0.203141 0.253830
vt 0.206735 0.335144
vt 0.693748 0.201880
vt 0.507684 0.708799
vt 0.610127 0.765967
vt 0.653521 0.727570
vt 0.400811 0.718518
vt 0.428452 0.628534
vt 0.752468 0.353161
vt 0.254210 0.574944
vt 0.328874 0.502949
vt 0.509716 0.787933
vt 0.513580 0.641788
vt 0.469744 0.920262
vt 0.400201 0.289268
vt 0.334806 0.255518
vt 0.396560 0.346564
vt 0.547814 0.582927
vt 0.524760 0.989449
vt 0.602658 0.008390
vt 0.522078 0.081275
vt 0.593716 0.090529
vt 0.415026 0.216986
vt 0.986146 0.627794
vt 0.287812 0.112055
vt 0.306203 0.178578
vt 0.300383 0.668813
vt 0.212728 0.735526
vt 0.325665 0.743110
vt 0.183274 0.685452
vt 0.799535 0.090114
vt 0.795727 0.029806
vt 0.692080 0.010323
vt 0.800372 0.750166
vt 0.806942 0.569124
vt 0.716600 0.114174
vt 0.339463 0.014840
vt 0.348436 0.080117
vt 0.405940 0.008035
vt 0.401063 0.097844
vt 0.656690 0.119186
vt 0.607314 0.672427
vt 0.662660 0.632451
vt 0.790858 0.222951
vt 0.715755 0.731217
vt 0.725469 0.782599
vt 0.211024 0.490066
vt 0.206922 0.506830
vt 0.798402 0.831597
vt 0.985093 0.831971
vt 0.219928 0.986472
vt 0.024127 0.832047
vt 0.017841 0.672971
vt 0.713622 0.606809
vt 0.795010 0.163832
vt 0.249857 0.007471
vt 0.210431 0.007656
vt 0.205915 0.458837
vt 0.403775 0.987189
vt 0.331983 0.992048
vt 0.801059 0.249045
vt 0.988220 0.800882
vt 0.524524 0.009344
vt 0.796303 0.009804
vt 0.991637 0.543885
vn 0.0139 0.6453 -0.7638
vn 0.7033 0.4661 -0.5367
vn 0.2216 -0.0091 -0.9751
vn 0.9987 -0.0366 -0.0362
vn 0.8033 -0.1148 0.5844
vn 0.6983 -0.1970 0.6882
vn -0.6775 -0.7316 -0.0764
vn 0.1337 -0.6853 0.7159
vn -0.7173 -0.5902 0.3702
vn -0.0660 0.8113 0.5809
vn 0.4454 0.5539 0.7034
vn 0.7306 0.6800 0.0612
vn -0.0215 -0.6728 -0.7395
vn 0.1589 -0.8703 0.4662
vn -0.3328 0.9426 -0.0295
vn -0.6117 0.3931 -0.6865
vn -0.7506 0.6438 0.1487
vn 0.8724 -0.0189 -0.4885
vn -0.6278 0.0050 0.7783
vn -0.9965 0.0765 -0.0348
vn 0.0231 0.0085 0.9997
vn 0.0776 0.0389 -0.9962
vn -0.0364 -0.6355 -0.7713
vn 0.5540 -0.5909 -0.5865
vn 0.0003 -1.0000 0.0003
vn 0.5052 -0.6002 0.6201
vn 0.0881 -0.7613 0.6424
vn -0.0239 -0.0391 -0.9989
vn 0.0294 0.0139 -0.9995
vn 0.0066 0.0440 -0.9990
vn 0.0326 0.7664 -0.6415
vn 0.0348 0.7921 -0.6094
vn 0.0597 0.0137 -0.9981
vn 0.0250 0.9991 -0.0333
vn -0.1766 -0.1151 0.9775
vn -0.0122 -0.0549 0.9984
vn 0.1023 0.6985 -0.7083
vn -0.0416 0.7862 -0.6166
vn 0.0570 0.0112 -0.9983
vn -0.1769 0.6848 0.7069
vn 0.0719 -0.0456 0.9964
vn -0.0306 0.6685 0.7430
vn 0.1014 0.7918 0.6023
vn 0.0548 -0.0280 -0.9981
vn 0.0033 0.5291 -0.8485
vn -0.0590 0.9983 0.0026
vn -0.0267 0.7788 0.6267
vn -0.0343 0.0516 0.9981
vn 0.0062 -0.7328 0.6805
vn 0.0079 -0.6372 0.7707
vn 0.0351 -0.9983 -0.0471
vn -0.0055 -0.6247 0.7809
vn -0.0314 -0.7483 -0.6627
vn -0.0302 -0.7171 0.6963
vn 0.8148 -0.0120 0.5797
vn 0.9930 -0.1156 -0.0227
vn 0.9942 -0.0059 -0.1076
vn -0.7488 -0.0486 -0.6610
vn -0.9984 -0.0406 0.0395
vn 0.6233 0.0521 -0.7802
vn 0.7409 0.0744 -0.6674
vn -0.9970 0.0764 0.0143
vn -0.9335 0.0301 -0.3574
vn -0.8116 0.0667 0.5804
vn -0.7675 -0.0068 -0.6410
vn 0.1543 0.0573 0.9864
vn 0.0044 0.0264 0.9996
vn -0.1756 -0.0020 0.9845
vn -0.6015 0.0226 -0.7986
vn 0.0544 0.1140 -0.9920
vn 0.0309 -0.0337 0.9990
vn 0.0276 -0.0041 0.9996
vn 0.1043 0.0798 0.9913
vn 0.0164 -0.0432 0.9989
vn 0.0365 0.0702 0.9969
vn 0.2007 0.8006 -0.5645
vn -0.1269 0.0621 0.9900
vn -0.1072 0.6262 0.7723
vn -0.0283 -0.0500 0.9983
vn -0.0310 0.0260 0.9992
vn 0.0405 -0.9970 -0.0656
vn -0.1021 0.1188 -0.9877
vn -0.0959 0.0203 -0.9952
vn -0.0799 0.8146 -0.5745
vn -0.0671 -0.0311 0.9973
vn -0.0167 -0.5939 -0.8043
vn 0.0400 0.0801 -0.9960
vn -0.0303 0.0031 -0.9995
vn -0.0707 -0.0619 -0.9956
vn 0.6661 0.1001 -0.7391
vn -0.0268 0.0486 -0.9985
vn -0.0135 0.0388 -0.9992
vn 0.0471 -0.1091 0.9929
vn -0.7338 0.0184 0.6791
vn -0.0036 -0.0374 0.9993
vn -0.8992 0.1712 0.4026
vn 0.5688 0.1698 -0.8048
vn 0.5728 -0.0610 0.8174
vn 0.7847 0.0095 0.6197
vn -0.0237 0.0745 -0.9969
vn 0.0805 -0.7154 -0.6941
vn -0.0094 0.0518 -0.9986
vn 0.0454 -0.6235 -0.7805
vn 0.1562 -0.0555 -0.9862
vn -0.1489 0.1616 -0.9755
vn -0.0325 -0.0953 0.9949
vn -0.0309 -0.0929 0.9952
vn 0.0801 -0.0334 0.9962
vn 0.0831 -0.0845 0.9930
vn -0.6145 0.5277 0.5864
vn -0.5466 -0.6042 -0.5797
vn 0.0382 -0.1072 0.9935
usemtl 10449_Rectangular_Box_Hedge_v1
s 1
f 75/1/1 2/2/2 13/3/3
f 18/4/4 19/5/5 24/6/6
f 16/7/7 7/8/8 89/9/9
f 22/10/10 11/11/11 21/12/12
f 5/13/13 49/14/14 16/7/7
f 28/15/15 54/16/16 55/17/17
f 31/18/18 2/19/2 21/20/12
f 23/21/19 55/17/17 15/22/20
f 11/11/11 22/10/10 35/23/21
f 13/3/3 96/24/22 75/1/1
f 32/25/23 1/26/24 36/27/25
f 36/27/25 1/26/24 4/28/26
f 36/27/25 4/28/26 33/29/27
f 43/30/28 42/31/29 44/32/30
f 67/33/31 40/34/32 45/35/33
f 47/36/34 40/34/32 67/33/31
f 48/37/35 49/14/14 100/38/36
f 58/39/37 65/40/38 59/41/39
f 65/40/38 28/42/15 51/43/40
f 82/44/41 63/45/42 74/46/43
f 75/1/1 97/47/44 72/48/45
f 63/45/42 67/33/31 76/49/46
f 35/23/21 46/50/47 81/51/48
f 33/29/27 84/52/49 36/27/25
f 68/53/50 85/54/51 60/55/52
f 41/56/53 84/52/49 61/57/54
f 85/54/51 68/53/50 49/14/14
f 6/58/55 17/59/56 90/60/57
f 87/61/58 16/62/7 92/63/59
f 10/64/60 30/65/61 90/60/57
f 26/66/62 91/67/63 92/63/59
f 93/68/64 15/22/20 25/69/65
f 23/21/19 15/22/20 93/68/64
f 110/70/66 53/71/67 50/72/68
f 91/73/63 27/74/69 87/75/58
f 25/76/65 15/77/20 54/78/16
f 25/76/65 54/78/16 59/41/39
f 34/79/70 97/47/44 96/24/22
f 109/80/71 108/81/72 77/82/73
f 80/83/74 112/84/75 110/70/66
f 46/50/47 22/10/10 3/85/76
f 44/32/30 42/31/29 34/79/70
f 68/53/50 100/38/36 49/14/14
f 86/86/77 53/71/67 51/43/40
f 52/87/78 51/43/40 53/71/67
f 49/14/14 5/13/13 85/54/51
f 52/87/78 65/40/38 51/43/40
f 61/57/54 101/88/79 60/55/52
f 112/84/75 80/83/74 62/89/80
f 85/54/51 64/90/81 60/55/52
f 73/91/82 103/92/83 65/40/38
f 63/45/42 76/49/46 74/46/43
f 76/49/46 66/93/84 65/40/38
f 67/33/31 63/45/42 47/36/34
f 68/53/50 60/55/52 100/38/36
f 81/51/48 83/94/85 35/23/21
f 83/94/85 81/51/48 82/44/41
f 36/27/25 84/52/49 32/25/23
f 39/95/86 41/56/53 61/57/54
f 41/96/53 105/97/87 71/98/88
f 112/84/75 83/94/85 82/44/41
f 73/91/82 45/35/33 104/99/89
f 88/100/90 18/4/4 30/65/61
f 57/101/91 56/102/92 43/30/28
f 111/103/93 9/104/94 79/105/95
f 93/68/64 50/72/68 86/86/77
f 9/104/94 50/72/68 20/106/96
f 10/107/60 29/108/97 32/109/23
f 90/60/57 94/110/98 6/58/55
f 94/110/98 90/60/57 24/6/6
f 92/63/59 89/9/9 9/104/94
f 88/100/90 14/111/99 18/4/4
f 92/63/59 91/67/63 87/61/58
f 30/65/61 18/4/4 90/60/57
f 10/107/60 32/109/23 95/112/100
f 71/98/88 43/30/28 44/32/30
f 100/38/36 79/105/95 48/37/35
f 57/101/91 87/75/58 27/74/69
f 56/102/92 25/76/65 103/92/83
f 62/89/80 83/94/85 112/84/75
f 69/113/101 102/114/102 106/115/103
f 106/115/103 102/114/102 105/97/87
f 105/97/87 107/116/104 43/30/28
f 104/99/89 45/35/33 42/31/29
f 34/79/70 95/112/100 70/117/105
f 109/80/71 77/82/73 78/118/106
f 109/80/71 62/89/80 80/83/74
f 95/112/100 71/98/88 70/117/105
f 78/118/106 38/119/107 62/89/80
f 79/105/95 80/83/74 111/103/93
f 88/120/90 34/79/70 96/24/22
f 105/97/87 102/114/102 107/116/104
f 98/121/108 108/81/72 37/122/109
f 53/71/67 112/84/75 82/44/41
f 110/70/66 111/103/93 80/83/74
f 11/11/11 14/111/99 21/20/12
f 23/21/19 86/86/77 12/123/110
f 55/17/17 23/21/19 12/124/110
f 4/125/26 1/126/24 17/59/56
f 5/13/13 16/7/7 8/127/111
f 8/128/111 16/62/7 87/61/58
f 27/129/69 26/66/62 25/69/65
f 54/16/16 15/22/20 55/17/17
f 2/2/2 3/85/76 21/12/12
f 99/130/112 98/121/108 24/6/6
f 95/112/100 34/79/70 30/131/61
f 22/10/10 46/50/47 35/23/21
f 45/35/33 40/34/32 72/48/45
f 72/48/45 40/34/32 47/36/34
f 49/14/14 48/37/35 7/8/8
f 12/123/110 86/86/77 51/43/40
f 16/7/7 49/14/14 7/8/8
f 54/78/16 28/42/15 58/39/37
f 87/75/58 5/132/13 8/133/111
f 54/78/16 58/39/37 59/41/39
f 55/134/17 51/43/40 28/42/15
f 28/42/15 65/40/38 58/39/37
f 72/48/45 47/36/34 75/1/1
f 44/32/30 70/117/105 71/98/88
f 3/85/76 47/36/34 46/50/47
f 37/122/109 84/52/49 33/29/27
f 74/46/43 52/87/78 82/44/41
f 106/135/103 85/54/51 69/136/101
f 84/52/49 41/56/53 32/25/23
f 39/95/86 61/57/54 64/90/81
f 23/21/19 93/68/64 86/86/77
f 7/8/8 48/37/35 89/9/9
f 13/3/3 31/137/18 88/120/90
f 34/79/70 88/120/90 30/131/61
f 9/104/94 26/66/62 92/63/59
f 4/125/26 17/59/56 6/58/55
f 10/64/60 90/60/57 29/138/97
f 92/63/59 16/62/7 89/9/9
f 37/122/109 4/125/26 6/58/55
f 94/110/98 24/6/6 98/121/108
f 19/5/5 35/23/21 24/6/6
f 79/105/95 9/104/94 48/37/35
f 50/72/68 53/71/67 86/86/77
f 109/80/71 80/83/74 101/88/79
f 87/75/58 57/101/91 102/114/102
f 35/23/21 83/94/85 38/119/107
f 62/89/80 38/119/107 83/94/85
f 33/29/27 4/125/26 37/122/109
f 67/33/31 45/35/33 73/91/82
f 63/45/42 82/44/41 81/51/48
f 60/55/52 64/90/81 61/57/54
f 39/95/86 85/54/51 106/135/103
f 5/132/13 87/75/58 69/113/101
f 73/91/82 65/40/38 66/93/84
f 66/93/84 67/33/31 73/91/82
f 52/87/78 74/46/43 76/49/46
f 3/85/76 75/1/1 47/36/34
f 52/87/78 76/49/46 65/40/38
f 52/87/78 53/71/67 82/44/41
f 69/136/101 85/54/51 5/13/13
f 38/119/107 98/121/108 99/130/112
f 39/139/86 105/97/87 41/96/53
f 97/47/44 42/31/29 45/35/33
f 80/83/74 100/38/36 101/88/79
f 102/114/102 57/101/91 43/30/28
f 106/115/103 105/97/87 39/139/86
f 70/117/105 44/32/30 34/79/70
f 71/98/88 95/112/100 41/96/53
f 108/81/72 98/121/108 77/82/73
f 99/130/112 35/23/21 38/119/107
f 84/52/49 108/81/72 101/88/79
f 108/81/72 109/80/71 101/88/79
f 95/112/100 30/131/61 10/107/60
f 93/68/64 26/66/62 20/106/96
f 19/5/5 18/4/4 14/111/99
f 14/111/99 11/11/11 35/23/21
f 103/92/83 104/99/89 43/30/28
f 62/89/80 109/80/71 78/118/106
f 100/38/36 80/83/74 79/105/95
f 50/72/68 93/68/64 20/106/96
f 32/109/23 29/108/97 1/140/24
f 18/4/4 24/6/6 90/60/57
f 91/67/63 26/66/62 27/129/69
f 17/59/56 29/138/97 90/60/57
f 31/18/18 14/111/99 88/100/90
f 26/66/62 93/68/64 25/69/65
f 35/23/21 19/5/5 14/111/99
f 95/112/100 32/109/23 41/96/53
f 37/122/109 94/110/98 98/121/108
f 98/121/108 38/119/107 77/82/73
f 35/23/21 99/130/112 24/6/6
f 43/30/28 71/98/88 105/97/87
f 97/47/44 34/79/70 42/31/29
f 110/70/66 50/72/68 111/103/93
f 59/41/39 103/92/83 25/76/65
f 87/75/58 102/114/102 69/113/101
f 103/92/83 73/91/82 104/99/89
f 43/30/28 56/102/92 103/92/83
f 42/31/29 43/30/28 104/99/89
f 78/118/106 77/82/73 38/119/107
f 100/38/36 60/55/52 101/88/79
f 107/116/104 102/114/102 43/30/28
f 37/122/109 108/81/72 84/52/49
f 61/57/54 84/52/49 101/88/79
f 9/104/94 89/9/9 48/37/35
f 31/18/18 21/20/12 14/111/99
f 2/19/2 31/18/18 13/141/3
f 22/10/10 21/12/12 3/85/76
f 47/36/34 63/45/42 46/50/47
f 55/134/17 12/123/110 51/43/40
f 66/93/84 76/49/46 67/33/31
f 37/122/109 6/58/55 94/110/98
f 17/59/56 1/126/24 29/138/97
f 39/95/86 64/90/81 85/54/51
f 97/47/44 45/35/33 72/48/45
f 63/45/42 81/51/48 46/50/47
f 25/76/65 56/102/92 27/74/69
f 50/72/68 9/104/94 111/103/93
f 56/102/92 57/101/91 27/74/69
f 59/41/39 65/40/38 103/92/83
f 26/66/62 9/104/94 20/106/96
f 110/70/66 112/84/75 53/71/67
f 3/85/76 2/2/2 75/1/1
f 96/24/22 13/3/3 88/120/90
f 96/24/22 97/47/44 75/1/1
