# Blender v2.79 (sub 0) OBJ File: ''
# www.blender.org
mtllib hedge.mtl
o Hedge_10449_Rectangular_Box_Hedge_v1_SG
v 3.322746 4.764007 -0.831368
v 3.580093 4.700129 1.289140
v -1.732479 4.714785 -1.003721
v -3.335618 4.746672 -0.979899
v -3.309815 4.486601 1.076496
v -2.180152 4.697495 1.210030
v 3.410382 0.113621 0.993568
v 3.431470 0.020582 -1.142013
v -1.093518 1.854519 -1.039852
v -0.984724 2.622945 1.155519
v -3.494131 0.113034 -1.040378
v -3.465509 -0.077798 1.121105
vt 0.342336 0.327095
vt 0.226410 0.339766
vt 0.211672 0.492493
vt 0.793800 0.010819
vt 0.401009 0.131210
vt 0.775406 0.346101
vt 0.344322 0.515216
vt 0.426711 0.656599
vt 0.796766 0.509337
vt 0.797382 0.824675
vt 0.982102 0.829832
vt 0.982736 0.512867
vt 0.211337 0.008963
vt 0.213657 0.829010
vt 0.789472 0.989496
vt 0.220434 0.984930
vt 0.025907 0.830754
vt 0.039593 0.511586
vt 0.792365 0.505186
vn -0.0100 0.7154 -0.6986
vn -0.5603 0.6320 -0.5354
vn -0.6354 0.5270 0.5644
vn 0.5743 -0.5698 -0.5878
vn -0.0041 0.0237 -0.9997
vn 0.5347 0.6200 -0.5741
vn -0.1079 0.7061 0.6999
vn 0.0016 -0.0357 0.9994
vn 0.6107 0.5450 0.5745
vn 0.5757 -0.5799 0.5765
vn -0.6013 -0.5350 -0.5935
vn -0.5807 -0.5955 0.5551
usemtl 10449_Rectangular_Box_Hedge_v1
s 1
f 3/1/1 4/2/2 5/3/3
f 8/4/4 9/5/5 1/6/6
f 6/7/7 3/1/1 5/3/3
f 6/7/7 10/8/8 2/9/9
f 7/10/10 8/11/4 2/9/9
f 1/12/6 2/9/9 8/11/4
f 9/5/5 11/13/11 4/2/2
f 9/5/5 4/2/2 3/1/1
f 11/13/11 9/5/5 8/4/4
f 3/1/1 1/6/6 9/5/5
f 7/10/10 2/9/9 10/8/8
f 12/14/12 8/15/4 7/10/10
f 8/15/4 12/14/12 11/16/11
f 10/8/8 12/14/12 7/10/10
f 6/7/7 5/3/3 12/14/12
f 11/17/11 12/14/12 4/18/2
f 12/14/12 5/3/3 4/18/2
f 1/6/6 6/7/7 2/19/9
f 3/1/1 6/7/7 1/6/6
f 6/7/7 12/14/12 10/8/8
