# Blender v2.79 (sub 0) OBJ File: ''
# www.blender.org
mtllib House.mtl
o Cube_Cube.001
v -2.868473 -0.322040 2.963606
v -2.868473 0.322040 2.963606
v -2.868473 -0.322040 -4.963606
v -2.868473 0.322040 -4.963606
v 2.868473 -0.322040 2.963606
v 2.868473 0.322040 2.963606
v 2.868473 -0.322040 -4.963606
v 2.868473 0.322040 -4.963606
v -3.010766 5.016902 3.062856
v -0.118871 7.016902 3.062856
v -3.010766 5.016902 -5.899657
v -0.118871 7.016902 -5.899657
v 2.773025 5.016902 3.062856
v -0.118871 7.016902 3.062856
v 2.773025 5.016902 -5.899657
v -0.118871 7.016902 -5.899657
v -2.949194 4.402626 3.231386
v -2.949194 5.046705 3.231386
v -2.949194 4.402626 -5.812455
v -2.949194 5.046705 -5.812455
v 2.787751 4.402626 3.231386
v 2.787751 5.046705 3.231386
v 2.787751 4.402626 -5.812455
v 2.787751 5.046705 -5.812455
v 2.662392 0.033453 -4.519813
v 2.662392 4.878332 -4.462250
v -2.452014 0.033453 -4.519813
v -2.452014 4.878332 -4.462251
v 2.662392 0.038629 -4.955444
v 2.662392 4.883507 -4.897882
v -2.452014 0.038629 -4.955444
v -2.452014 4.883507 -4.897882
v 2.329548 0.186415 2.920735
v 2.354646 5.031571 2.920735
v 2.329548 0.186415 -4.912541
v 2.354646 5.031571 -4.912541
v 2.765204 0.184159 2.920735
v 2.790303 5.029314 2.920735
v 2.765204 0.184159 -4.912541
v 2.790303 5.029314 -4.912541
v 2.774224 1.925430 -3.916661
v 2.772331 1.559921 -3.916661
v 2.336708 1.568615 -3.916660
v 2.772331 1.559921 -1.775343
v 2.336708 1.568615 -1.775343
v 2.783148 3.648113 -3.916660
v 2.347525 3.656807 -3.916661
v 2.783148 3.648113 -1.775343
v 2.347525 3.656807 -1.775343
v 2.780251 3.088847 -1.775342
v 2.339600 2.126883 -1.775342
v -2.838400 0.182838 2.920735
v -2.895962 5.027716 2.920735
v -2.838400 0.182838 -4.912541
v -2.895962 5.027716 -4.912541
v -2.402769 0.188013 2.920735
v -2.460331 5.032892 2.920735
v -2.402769 0.188013 -4.912541
v -2.460331 5.032892 -4.912541
v -2.419162 1.567757 1.783806
v -2.854793 1.562581 1.783806
v -2.419162 1.567757 -0.357512
v -2.854793 1.562581 -0.357512
v -2.443967 3.655602 1.783806
v -2.879599 3.650426 1.783806
v -2.443967 3.655602 -0.357512
v -2.879599 3.650426 -0.357512
v -2.426859 2.215608 -0.357512
v -2.871873 3.000122 -0.357512
v 2.662392 0.033453 3.000404
v 2.662392 4.878332 3.057966
v -2.452014 0.033453 3.000403
v -2.452014 4.878332 3.057966
v 2.662392 0.038629 2.564772
v 2.662392 4.883507 2.622334
v -2.452014 0.038629 2.564772
v -2.452014 4.883507 2.622334
vt 0.116778 0.569799
vt 0.395705 0.497392
vt 0.395705 0.569799
vt 0.395748 0.280171
vt 0.116778 0.207764
vt 0.395748 0.207764
vt 0.116778 0.642207
vt 0.395703 0.569799
vt 0.395703 0.642207
vt 0.116778 0.424985
vt 0.395748 0.497392
vt 0.116778 0.497392
vt 0.425293 0.808225
vt 0.146468 0.735815
vt 0.425293 0.735818
vt 0.154326 0.735252
vt 0.433111 0.807655
vt 0.154326 0.807659
vt 0.420592 0.716500
vt 0.105187 0.491052
vt 0.420592 0.491052
vt 0.392181 0.836265
vt 0.409551 0.611426
vt 0.426921 0.836265
vt 0.435533 0.487360
vt 0.120129 0.261901
vt 0.435533 0.261901
vt 0.392181 0.611426
vt 0.392181 0.839208
vt 0.357890 0.623124
vt 0.141488 0.814560
vt 0.422736 0.732736
vt 0.422736 0.814557
vt 0.996071 0.191769
vt 0.996071 0.191769
vt 0.996071 0.191769
vt 0.160601 0.811208
vt 0.439528 0.728601
vt 0.439528 0.811208
vt 0.116778 0.352578
vt 0.395748 0.424985
vt 0.116778 0.424985
vt 0.142656 0.814335
vt 0.421581 0.731729
vt 0.421581 0.814335
vt 0.116778 0.280171
vt 0.395748 0.352578
vt 0.116778 0.352578
vt 0.435282 0.727815
vt 0.156312 0.810381
vt 0.156312 0.727818
vt 0.141429 0.812827
vt 0.420399 0.730279
vt 0.420399 0.812831
vt 0.389079 0.722893
vt 0.140381 0.178235
vt 0.389079 0.178235
vt 0.308070 0.183046
vt 0.323402 0.727042
vt 0.308070 0.727620
vt 0.395049 0.724124
vt 0.146351 0.179465
vt 0.395049 0.179465
vt 0.292737 0.183046
vt 0.277404 0.727038
vt 0.277404 0.182468
vt 0.218841 0.769630
vt 0.220743 0.705080
vt 0.220743 0.769629
vt 0.220743 0.769629
vt 0.222645 0.705080
vt 0.222645 0.769630
vt 0.295368 0.335445
vt 0.295368 0.507413
vt 0.130106 0.180918
vt 0.277404 0.182718
vt 0.256219 0.727158
vt 0.256219 0.182468
vt 0.424156 0.182468
vt 0.313753 0.337104
vt 0.148491 0.182468
vt 0.256219 0.727157
vt 0.235033 0.182718
vt 0.256219 0.182468
vt 0.235014 0.705088
vt 0.232397 0.776591
vt 0.232397 0.705080
vt 0.229781 0.705080
vt 0.227164 0.776590
vt 0.227164 0.705089
vt 0.359921 0.223558
vt 0.359921 0.417221
vt 0.338735 0.418195
vt 0.313753 0.571816
vt 0.389109 0.571816
vt 0.424156 0.727063
vt 0.295368 0.570164
vt 0.370724 0.570164
vt 0.405771 0.725528
vt 0.216940 0.705080
vt 0.214323 0.724661
vt 0.214323 0.705115
vt 0.426921 0.611426
vt 0.429537 0.612401
vt 0.429537 0.675273
vt 0.211706 0.724628
vt 0.214323 0.705111
vt 0.214323 0.724660
vt 0.147611 0.728579
vt 0.262977 0.573497
vt 0.423275 0.728579
vt 0.235033 0.727127
vt 0.213847 0.183042
vt 0.235033 0.182468
vt 0.411165 0.182468
vt 0.250867 0.337556
vt 0.135501 0.182468
vt 0.213847 0.183042
vt 0.192660 0.727127
vt 0.192660 0.182468
vt 0.232397 0.705080
vt 0.229781 0.776610
vt 0.229781 0.705099
vt 0.227164 0.705101
vt 0.224548 0.776581
vt 0.224548 0.705080
vt 0.338735 0.418195
vt 0.359922 0.418770
vt 0.359922 0.491877
vt 0.250867 0.572238
vt 0.411165 0.727051
vt 0.135501 0.727051
vt 0.423275 0.184018
vt 0.262977 0.338824
vt 0.147610 0.184018
vt 0.209089 0.705101
vt 0.206473 0.724626
vt 0.206473 0.705080
vt 0.209089 0.724647
vt 0.211706 0.705080
vt 0.211706 0.724628
vt 0.449350 0.632110
vt 0.451967 0.866250
vt 0.449350 0.866825
vt 0.394390 0.722893
vt 0.145692 0.178235
vt 0.394390 0.178235
vt 0.323403 0.183046
vt 0.338735 0.727042
vt 0.323403 0.727620
vt 0.419622 0.724124
vt 0.170924 0.179465
vt 0.419622 0.179465
vt 0.308070 0.183046
vt 0.292737 0.727038
vt 0.292737 0.182468
vt 0.216940 0.769630
vt 0.218841 0.705080
vt 0.218841 0.769629
vt 0.224548 0.705080
vt 0.222645 0.769629
vt 0.222645 0.705080
vt 0.116778 0.497392
vt 0.116778 0.280171
vt 0.116778 0.569799
vt 0.395748 0.424985
vt 0.146468 0.808222
vt 0.433111 0.735248
vt 0.105187 0.716500
vt 0.409551 0.611426
vt 0.120129 0.487360
vt 0.392181 0.839208
vt 0.141488 0.732739
vt 0.996071 0.191769
vt 0.160601 0.728601
vt 0.395748 0.352578
vt 0.142656 0.731729
vt 0.395748 0.280171
vt 0.435282 0.810378
vt 0.141429 0.730276
vt 0.140381 0.722893
vt 0.323402 0.182468
vt 0.146351 0.724124
vt 0.292737 0.727616
vt 0.218841 0.705080
vt 0.220743 0.705080
vt 0.130106 0.725528
vt 0.405770 0.180918
vt 0.370724 0.335445
vt 0.277404 0.727408
vt 0.389109 0.378187
vt 0.389109 0.337104
vt 0.313753 0.508955
vt 0.148491 0.727063
vt 0.235033 0.727408
vt 0.235014 0.776599
vt 0.229781 0.776581
vt 0.338735 0.183442
vt 0.359921 0.182468
vt 0.216940 0.724626
vt 0.429537 0.847154
vt 0.426921 0.783420
vt 0.426921 0.846180
vt 0.211706 0.705080
vt 0.187621 0.573497
vt 0.187621 0.338824
vt 0.262977 0.411918
vt 0.213847 0.727701
vt 0.250867 0.410377
vt 0.175511 0.337556
vt 0.213847 0.727701
vt 0.232397 0.776591
vt 0.227164 0.776603
vt 0.359922 0.653484
vt 0.338735 0.580079
vt 0.338735 0.652910
vt 0.175510 0.572238
vt 0.209089 0.724647
vt 0.209089 0.705099
vt 0.451967 0.631536
vt 0.145692 0.722893
vt 0.338735 0.182468
vt 0.170924 0.724124
vt 0.308070 0.727616
vt 0.216940 0.705080
vt 0.224548 0.769630
vn -1.0000 0.0000 0.0000
vn 0.0000 0.0000 -1.0000
vn 1.0000 0.0000 0.0000
vn 0.0000 0.0000 1.0000
vn 0.0000 -1.0000 0.0000
vn 0.0000 1.0000 0.0000
vn -0.5688 0.8225 0.0000
vn 0.5688 0.8225 0.0000
vn 0.0000 -0.0119 0.9999
vn 0.0000 0.0119 -0.9999
vn 0.0000 -0.9999 -0.0119
vn -0.0000 0.9999 0.0119
vn -1.0000 0.0052 0.0000
vn 1.0000 -0.0052 0.0000
vn -0.0052 -1.0000 0.0000
vn 0.0052 1.0000 0.0000
vn 0.0200 0.9998 0.0000
vn -0.0200 -0.9998 0.0000
vn -0.9999 -0.0119 0.0000
vn 0.9999 0.0119 0.0000
vn 0.0119 -0.9999 0.0000
vn -0.0119 0.9999 0.0000
usemtl None
s off
f 2/1/1 3/2/1 1/3/1
f 4/4/2 7/5/2 3/6/2
f 8/7/3 5/8/3 7/9/3
f 6/10/4 1/11/4 5/12/4
f 7/13/5 1/14/5 3/15/5
f 4/16/6 6/17/6 8/18/6
f 10/19/7 11/20/7 9/21/7
f 11/22/2 16/23/2 15/24/2
f 16/25/8 13/26/8 15/27/8
f 13/28/4 10/29/4 9/30/4
f 15/31/5 9/32/5 11/33/5
f 16/34/4 10/35/4 14/36/4
f 18/37/1 19/38/1 17/39/1
f 20/40/2 23/41/2 19/42/2
f 24/43/3 21/44/3 23/45/3
f 22/46/4 17/47/4 21/48/4
f 23/49/5 17/50/5 19/51/5
f 20/52/6 22/53/6 24/54/6
f 26/55/9 27/56/9 25/57/9
f 28/58/1 31/59/1 27/60/1
f 32/61/10 29/62/10 31/63/10
f 29/64/3 26/65/3 25/66/3
f 31/67/11 25/68/11 27/69/11
f 28/70/12 30/71/12 32/72/12
f 49/73/13 51/74/13 34/75/13
f 35/76/2 40/77/2 39/78/2
f 39/79/14 44/80/14 37/81/14
f 38/82/4 33/83/4 37/84/4
f 39/85/15 33/86/15 35/87/15
f 36/88/16 38/89/16 40/90/16
f 41/91/4 46/92/4 47/93/4
f 48/94/14 46/95/14 40/96/14
f 45/97/13 43/98/13 35/99/13
f 44/100/17 43/101/17 45/102/17
f 49/103/2 48/104/2 50/105/2
f 49/106/18 46/107/18 48/108/18
f 52/109/19 63/110/19 54/111/19
f 55/112/2 58/113/2 54/114/2
f 58/115/20 62/116/20 56/117/20
f 56/118/4 53/119/4 52/120/4
f 58/121/21 52/122/21 54/123/21
f 55/124/22 57/125/22 59/126/22
f 66/127/4 67/128/4 69/129/4
f 66/130/20 59/131/20 57/132/20
f 55/133/19 67/134/19 53/135/19
f 60/136/22 63/137/22 61/138/22
f 65/139/21 66/140/21 64/141/21
f 60/142/2 65/143/2 64/144/2
f 71/145/9 72/146/9 70/147/9
f 73/148/1 76/149/1 72/150/1
f 77/151/10 74/152/10 76/153/10
f 74/154/3 71/155/3 70/156/3
f 76/157/11 70/158/11 72/159/11
f 73/160/12 75/161/12 77/162/12
f 2/1/1 4/163/1 3/2/1
f 4/4/2 8/164/2 7/5/2
f 8/7/3 6/165/3 5/8/3
f 6/10/4 2/166/4 1/11/4
f 7/13/5 5/167/5 1/14/5
f 4/16/6 2/168/6 6/17/6
f 10/19/7 12/169/7 11/20/7
f 11/22/4 12/170/4 16/23/4
f 16/25/8 14/171/8 13/26/8
f 13/28/4 14/172/4 10/29/4
f 15/31/5 13/173/5 9/32/5
f 16/34/4 12/174/4 10/35/4
f 18/37/1 20/175/1 19/38/1
f 20/40/2 24/176/2 23/41/2
f 24/43/3 22/177/3 21/44/3
f 22/46/4 18/178/4 17/47/4
f 23/49/5 21/179/5 17/50/5
f 20/52/6 18/180/6 22/53/6
f 26/55/9 28/181/9 27/56/9
f 28/58/1 32/182/1 31/59/1
f 32/61/10 30/183/10 29/62/10
f 29/64/3 30/184/3 26/65/3
f 31/67/11 29/185/11 25/68/11
f 28/70/12 26/186/12 30/71/12
f 51/74/13 33/187/13 34/75/13
f 34/75/13 36/188/13 49/73/13
f 36/188/13 47/189/13 49/73/13
f 35/76/2 36/190/2 40/77/2
f 39/79/14 41/191/14 42/192/14
f 44/80/14 50/193/14 37/81/14
f 50/193/14 38/194/14 37/81/14
f 39/79/14 42/192/14 44/80/14
f 38/82/4 34/195/4 33/83/4
f 39/85/15 37/196/15 33/86/15
f 36/88/16 34/197/16 38/89/16
f 47/93/4 43/198/4 41/91/4
f 43/198/4 42/199/4 41/91/4
f 38/194/14 50/193/14 48/94/14
f 46/95/14 41/191/14 40/96/14
f 41/191/14 39/79/14 40/96/14
f 38/194/14 48/94/14 40/96/14
f 43/98/13 47/189/13 36/188/13
f 33/187/13 51/74/13 45/97/13
f 43/98/13 36/188/13 35/99/13
f 33/187/13 45/97/13 35/99/13
f 44/100/17 42/200/17 43/101/17
f 50/105/2 44/201/2 51/202/2
f 44/201/2 45/203/2 51/202/2
f 51/202/2 49/103/2 50/105/2
f 49/106/18 47/204/18 46/107/18
f 52/109/19 53/135/19 61/205/19
f 53/135/19 65/206/19 61/205/19
f 69/207/19 55/133/19 54/111/19
f 52/109/19 61/205/19 63/110/19
f 63/110/19 69/207/19 54/111/19
f 55/112/2 59/208/2 58/113/2
f 58/115/20 68/209/20 62/116/20
f 62/116/20 60/210/20 56/117/20
f 56/118/4 57/211/4 53/119/4
f 58/121/21 56/212/21 52/122/21
f 55/124/22 53/213/22 57/125/22
f 69/129/4 63/214/4 68/215/4
f 63/214/4 62/216/4 68/215/4
f 68/215/4 66/127/4 69/129/4
f 57/132/20 56/117/20 60/210/20
f 57/132/20 60/210/20 64/217/20
f 68/209/20 58/115/20 59/131/20
f 57/132/20 64/217/20 66/130/20
f 66/130/20 68/209/20 59/131/20
f 55/133/19 69/207/19 67/134/19
f 67/134/19 65/206/19 53/135/19
f 60/136/22 62/218/22 63/137/22
f 65/139/21 67/219/21 66/140/21
f 60/142/2 61/220/2 65/143/2
f 71/145/9 73/221/9 72/146/9
f 73/148/1 77/222/1 76/149/1
f 77/151/10 75/223/10 74/152/10
f 74/154/3 75/224/3 71/155/3
f 76/157/11 74/225/11 70/158/11
f 73/160/12 71/226/12 75/161/12
o door_Cube.006
v -2.212991 0.384577 -5.022098
v -2.212991 4.260518 -5.068148
v -0.071674 0.384577 -5.022098
v -0.071674 4.260518 -5.068148
v -2.212991 0.394445 -4.191480
v -2.212991 4.270387 -4.237530
v -0.071674 0.394445 -4.191480
v -0.071674 4.270387 -4.237530
vt 0.846337 0.668350
vt 0.742530 0.280868
vt 0.846337 0.280868
vt 0.846337 0.668350
vt 0.742530 0.280868
vt 0.846337 0.280868
vt 0.846337 0.668350
vt 0.742530 0.280868
vt 0.846337 0.280868
vt 0.846337 0.668350
vt 0.742530 0.280868
vt 0.846337 0.280868
vt 0.846337 0.668350
vt 0.742530 0.280868
vt 0.846337 0.280868
vt 0.742530 0.668350
vt 0.742530 0.668350
vt 0.742530 0.668350
vt 0.742530 0.668350
vt 0.742530 0.668350
vn 0.0000 -0.0119 -0.9999
vn 1.0000 0.0000 0.0000
vn 0.0000 0.0119 0.9999
vn -1.0000 0.0000 0.0000
vn 0.0000 -0.9999 0.0119
vn 0.0000 0.9999 -0.0119
usemtl None
s off
f 79/227/23 80/228/23 78/229/23
f 81/230/24 84/231/24 80/232/24
f 85/233/25 82/234/25 84/235/25
f 83/236/26 78/237/26 82/238/26
f 84/239/27 78/237/27 80/232/27
f 81/230/28 83/240/28 85/241/28
f 79/227/23 81/242/23 80/228/23
f 81/230/24 85/243/24 84/231/24
f 85/233/25 83/244/25 82/234/25
f 83/236/26 79/245/26 78/237/26
f 84/239/27 82/246/27 78/237/27
f 81/230/28 79/245/28 83/240/28
