# Blender v2.79 (sub 0) OBJ File: ''
# www.blender.org
mtllib Log.mtl
o Cylinder
v 0.000000 0.999999 5.285833
v 0.195090 0.980786 -5.285833
v 0.000000 1.000001 -5.285833
v 0.195090 0.980785 5.285833
v 0.382683 0.923880 -5.285833
v 0.382683 0.923879 5.285833
v 0.555570 0.831470 -5.285833
v 0.555570 0.831469 5.285833
v 0.707107 0.707107 -5.285833
v 0.707107 0.707106 5.285833
v 0.831470 0.555571 -5.285833
v 0.831470 0.555570 5.285833
v 0.923880 0.382684 -5.285833
v 0.923880 0.382683 5.285833
v 0.980785 0.195091 -5.285833
v 0.980785 0.195090 5.285833
v 1.000000 0.000001 -5.285833
v 1.000000 -0.000001 5.285833
v 0.980785 -0.195090 -5.285833
v 0.980785 -0.195091 5.285833
v 0.923880 -0.382683 -5.285833
v 0.923880 -0.382684 5.285833
v 0.831470 -0.555570 -5.285833
v 0.831470 -0.555571 5.285833
v 0.707107 -0.707106 -5.285833
v 0.707107 -0.707107 5.285833
v 0.555570 -0.831469 -5.285833
v 0.555570 -0.831470 5.285833
v 0.382683 -0.923879 -5.285833
v 0.382683 -0.923880 5.285833
v 0.195090 -0.980785 -5.285833
v 0.195090 -0.980786 5.285833
v 0.000000 -0.999999 -5.285833
v 0.000000 -1.000001 5.285833
v -0.195091 -0.980785 -5.285833
v -0.195091 -0.980786 5.285833
v -0.382684 -0.923879 -5.285833
v -0.382684 -0.923880 5.285833
v -0.555571 -0.831469 -5.285833
v -0.555571 -0.831470 5.285833
v -0.707107 -0.707106 -5.285833
v -0.707107 -0.707107 5.285833
v -0.831470 -0.555569 -5.285833
v -0.831470 -0.555570 5.285833
v -0.923880 -0.382682 -5.285833
v -0.923880 -0.382683 5.285833
v -0.980785 -0.195089 -5.285833
v -0.980785 -0.195090 5.285833
v -1.000000 0.000002 -5.285833
v -1.000000 0.000000 5.285833
v -0.980785 0.195092 -5.285833
v -0.980785 0.195091 5.285833
v -0.923879 0.382685 -5.285833
v -0.923879 0.382684 5.285833
v -0.831469 0.555572 -5.285833
v -0.831469 0.555571 5.285833
v -0.707106 0.707108 -5.285833
v -0.707106 0.707107 5.285833
v -0.555569 0.831471 -5.285833
v -0.555569 0.831470 5.285833
v -0.382682 0.923881 -5.285833
v -0.382682 0.923880 5.285833
v -0.195089 0.980786 -5.285833
v -0.195089 0.980785 5.285833
vt 0.501898 1.000000
vt 0.476172 0.000000
vt 0.501898 0.000000
vt 0.476171 1.000000
vt 0.450940 0.000000
vt 0.450940 1.000000
vt 0.427172 0.000000
vt 0.427171 1.000000
vt 0.405781 0.000000
vt 0.405781 1.000000
vt 0.387590 0.000000
vt 0.738796 1.000000
vt 0.717405 0.000000
vt 0.738796 0.000000
vt 0.717406 1.000000
vt 0.693637 0.000000
vt 0.693638 1.000000
vt 0.668405 0.000000
vt 0.668405 1.000000
vt 0.642679 0.000000
vt 0.642679 1.000000
vt 0.617447 0.000000
vt 0.617447 1.000000
vt 0.593679 0.000000
vt 0.593679 1.000000
vt 0.572288 0.000000
vt 0.202890 0.000000
vt 0.221082 1.000000
vt 0.202890 1.000000
vt 0.221082 0.000000
vt 0.242472 1.000000
vt 0.242472 0.000000
vt 0.266240 1.000000
vt 0.266240 0.000000
vt 0.291472 1.000000
vt 0.291472 0.000000
vt 0.317199 1.000000
vt 0.317199 0.000000
vt 0.342431 1.000000
vt 0.342431 0.000000
vt 0.366199 1.000000
vt 0.366199 0.000000
vt 0.387589 1.000000
vt 0.202890 1.000000
vt 0.184699 0.000000
vt 0.202890 0.000000
vt 0.184699 1.000000
vt 0.163308 0.000000
vt 0.163308 1.000000
vt 0.139540 0.000000
vt 0.139540 1.000000
vt 0.114308 0.000000
vt 0.114308 1.000000
vt 0.088582 0.000000
vt 0.088582 1.000000
vt 0.063350 0.000000
vt 0.063350 1.000000
vt 0.039582 0.000000
vt 0.039582 1.000000
vt 0.018191 0.000000
vt 0.018191 1.000000
vt 0.000000 0.000000
vt 0.572288 1.000000
vt 0.550898 0.000000
vt 0.572288 0.000000
vt 0.985136 0.237820
vt 0.931262 0.365834
vt 0.753660 0.327002
vt 0.550898 1.000000
vt 0.527130 0.000000
vt 0.527130 1.000000
vt 1.000000 0.084865
vt 0.882261 0.188274
vt 0.738796 0.103408
vt 0.387589 1.000000
vt 0.572289 1.000000
vt 0.387589 0.000000
vt 0.000000 1.000000
vt 0.807535 0.198988
vt 0.831303 0.191892
vt 0.856535 0.188274
vt 0.882261 0.188274
vt 0.907493 0.191892
vt 0.931261 0.198988
vt 0.952652 0.209290
vt 0.970843 0.222402
vt 0.994981 0.254952
vt 1.000000 0.273139
vt 1.000000 0.291682
vt 0.994981 0.309870
vt 0.985136 0.327001
vt 0.970843 0.342420
vt 0.952652 0.355532
vt 0.907494 0.372930
vt 0.882262 0.376548
vt 0.856535 0.376548
vt 0.831303 0.372930
vt 0.807535 0.365834
vt 0.786144 0.355532
vt 0.767953 0.342420
vt 0.743815 0.309870
vt 0.738796 0.291683
vt 0.738796 0.273139
vt 0.743815 0.254952
vt 0.753660 0.237821
vt 0.767953 0.222402
vt 0.786144 0.209290
vt 0.856535 0.000000
vt 0.882262 0.000000
vt 0.907493 0.003618
vt 0.931261 0.010714
vt 0.952652 0.021016
vt 0.970843 0.034128
vt 0.985136 0.049547
vt 0.994981 0.066678
vt 1.000000 0.103409
vt 0.994981 0.121596
vt 0.985136 0.138728
vt 0.970843 0.154146
vt 0.952652 0.167258
vt 0.931261 0.177560
vt 0.907493 0.184656
vt 0.856535 0.188274
vt 0.831303 0.184656
vt 0.807535 0.177560
vt 0.786144 0.167258
vt 0.767953 0.154146
vt 0.753660 0.138727
vt 0.743815 0.121596
vt 0.738796 0.084865
vt 0.743815 0.066678
vt 0.753660 0.049546
vt 0.767953 0.034128
vt 0.786145 0.021016
vt 0.807535 0.010714
vt 0.831303 0.003618
vn 0.0980 0.9952 0.0000
vn 0.2903 0.9569 0.0000
vn 0.4714 0.8819 0.0000
vn 0.6344 0.7730 0.0000
vn 0.7730 0.6344 0.0000
vn 0.8819 0.4714 0.0000
vn 0.9569 0.2903 0.0000
vn 0.9952 0.0980 0.0000
vn 0.9952 -0.0980 -0.0000
vn 0.9569 -0.2903 -0.0000
vn 0.8819 -0.4714 -0.0000
vn 0.7730 -0.6344 -0.0000
vn 0.6344 -0.7730 -0.0000
vn 0.4714 -0.8819 -0.0000
vn 0.2903 -0.9569 -0.0000
vn 0.0980 -0.9952 -0.0000
vn -0.0980 -0.9952 -0.0000
vn -0.2903 -0.9569 -0.0000
vn -0.4714 -0.8819 -0.0000
vn -0.6344 -0.7730 -0.0000
vn -0.7730 -0.6344 -0.0000
vn -0.8819 -0.4714 -0.0000
vn -0.9569 -0.2903 -0.0000
vn -0.9952 -0.0980 -0.0000
vn -0.9952 0.0980 0.0000
vn -0.9569 0.2903 0.0000
vn -0.8819 0.4714 0.0000
vn -0.7730 0.6344 0.0000
vn -0.6344 0.7730 0.0000
vn -0.4714 0.8819 0.0000
vn -0.0000 0.0000 1.0000
vn -0.2903 0.9569 0.0000
vn -0.0980 0.9952 0.0000
vn 0.0000 0.0000 -1.0000
usemtl None
s 1
f 1/1/1 2/2/1 3/3/1
f 4/4/2 5/5/2 2/2/2
f 6/6/3 7/7/3 5/5/3
f 8/8/4 9/9/4 7/7/4
f 10/10/5 11/11/5 9/9/5
f 12/12/6 13/13/6 11/14/6
f 14/15/7 15/16/7 13/13/7
f 16/17/8 17/18/8 15/16/8
f 18/19/9 19/20/9 17/18/9
f 20/21/10 21/22/10 19/20/10
f 22/23/11 23/24/11 21/22/11
f 24/25/12 25/26/12 23/24/12
f 26/27/13 27/28/13 25/29/13
f 28/30/14 29/31/14 27/28/14
f 30/32/15 31/33/15 29/31/15
f 32/34/16 33/35/16 31/33/16
f 34/36/17 35/37/17 33/35/17
f 36/38/18 37/39/18 35/37/18
f 38/40/19 39/41/19 37/39/19
f 40/42/20 41/43/20 39/41/20
f 42/44/21 43/45/21 41/46/21
f 44/47/22 45/48/22 43/45/22
f 46/49/23 47/50/23 45/48/23
f 48/51/24 49/52/24 47/50/24
f 50/53/25 51/54/25 49/52/25
f 52/55/26 53/56/26 51/54/26
f 54/57/27 55/58/27 53/56/27
f 56/59/28 57/60/28 55/58/28
f 58/61/29 59/62/29 57/60/29
f 60/63/30 61/64/30 59/65/30
f 54/66/31 38/67/31 22/68/31
f 62/69/32 63/70/32 61/64/32
f 64/71/33 3/3/33 63/70/33
f 15/72/34 31/73/34 47/74/34
f 1/1/1 4/4/1 2/2/1
f 4/4/2 6/6/2 5/5/2
f 6/6/3 8/8/3 7/7/3
f 8/8/4 10/10/4 9/9/4
f 10/10/5 12/75/5 11/11/5
f 12/12/6 14/15/6 13/13/6
f 14/15/7 16/17/7 15/16/7
f 16/17/8 18/19/8 17/18/8
f 18/19/9 20/21/9 19/20/9
f 20/21/10 22/23/10 21/22/10
f 22/23/11 24/25/11 23/24/11
f 24/25/12 26/76/12 25/26/12
f 26/27/13 28/30/13 27/28/13
f 28/30/14 30/32/14 29/31/14
f 30/32/15 32/34/15 31/33/15
f 32/34/16 34/36/16 33/35/16
f 34/36/17 36/38/17 35/37/17
f 36/38/18 38/40/18 37/39/18
f 38/40/19 40/42/19 39/41/19
f 40/42/20 42/77/20 41/43/20
f 42/44/21 44/47/21 43/45/21
f 44/47/22 46/49/22 45/48/22
f 46/49/23 48/51/23 47/50/23
f 48/51/24 50/53/24 49/52/24
f 50/53/25 52/55/25 51/54/25
f 52/55/26 54/57/26 53/56/26
f 54/57/27 56/59/27 55/58/27
f 56/59/28 58/61/28 57/60/28
f 58/61/29 60/78/29 59/62/29
f 60/63/30 62/69/30 61/64/30
f 6/79/31 4/80/31 1/81/31
f 1/81/31 64/82/31 6/79/31
f 64/82/31 62/83/31 6/79/31
f 62/83/31 60/84/31 58/85/31
f 58/85/31 56/86/31 54/66/31
f 54/66/31 52/87/31 50/88/31
f 50/88/31 48/89/31 54/66/31
f 48/89/31 46/90/31 54/66/31
f 46/90/31 44/91/31 38/67/31
f 44/91/31 42/92/31 38/67/31
f 42/92/31 40/93/31 38/67/31
f 38/67/31 36/94/31 34/95/31
f 34/95/31 32/96/31 30/97/31
f 30/97/31 28/98/31 26/99/31
f 26/99/31 24/100/31 22/68/31
f 22/68/31 20/101/31 18/102/31
f 18/102/31 16/103/31 22/68/31
f 16/103/31 14/104/31 22/68/31
f 14/104/31 12/105/31 10/106/31
f 10/106/31 8/107/31 6/79/31
f 62/83/31 58/85/31 6/79/31
f 58/85/31 54/66/31 6/79/31
f 38/67/31 34/95/31 22/68/31
f 34/95/31 30/97/31 22/68/31
f 30/97/31 26/99/31 22/68/31
f 14/104/31 10/106/31 22/68/31
f 10/106/31 6/79/31 22/68/31
f 54/66/31 46/90/31 38/67/31
f 6/79/31 54/66/31 22/68/31
f 62/69/32 64/71/32 63/70/32
f 64/71/33 1/1/33 3/3/33
f 63/108/34 3/109/34 2/110/34
f 2/110/34 5/111/34 7/112/34
f 7/112/34 9/113/34 11/114/34
f 11/114/34 13/115/34 7/112/34
f 13/115/34 15/72/34 7/112/34
f 15/72/34 17/116/34 19/117/34
f 19/117/34 21/118/34 15/72/34
f 21/118/34 23/119/34 15/72/34
f 23/119/34 25/120/34 31/73/34
f 25/120/34 27/121/34 31/73/34
f 27/121/34 29/122/34 31/73/34
f 31/73/34 33/123/34 35/124/34
f 35/124/34 37/125/34 39/126/34
f 39/126/34 41/127/34 43/128/34
f 43/128/34 45/129/34 47/74/34
f 47/74/34 49/130/34 51/131/34
f 51/131/34 53/132/34 55/133/34
f 55/133/34 57/134/34 63/108/34
f 57/134/34 59/135/34 63/108/34
f 59/135/34 61/136/34 63/108/34
f 63/108/34 2/110/34 7/112/34
f 31/73/34 35/124/34 47/74/34
f 35/124/34 39/126/34 47/74/34
f 39/126/34 43/128/34 47/74/34
f 47/74/34 51/131/34 63/108/34
f 51/131/34 55/133/34 63/108/34
f 63/108/34 7/112/34 15/72/34
f 15/72/34 23/119/34 31/73/34
f 63/108/34 15/72/34 47/74/34
