# Blender v2.79 (sub 0) OBJ File: ''
# www.blender.org
o Cube.004_Cube.006
v -0.797419 3.997241 0.682411
v -0.797419 4.845104 0.682411
v -0.797419 3.997241 -0.818702
v -0.797419 4.845104 -0.818702
v 0.720151 3.997241 0.682411
v 0.720151 4.845104 0.682411
v 0.720151 3.997241 -0.818702
v 0.720151 4.845104 -0.818702
vn -1.0000 0.0000 0.0000
vn 0.0000 0.0000 -1.0000
vn 1.0000 0.0000 0.0000
vn 0.0000 0.0000 1.0000
vn 0.0000 -1.0000 0.0000
vn 0.0000 1.0000 0.0000
s off
f 2//1 3//1 1//1
f 4//2 7//2 3//2
f 8//3 5//3 7//3
f 6//4 1//4 5//4
f 7//5 1//5 3//5
f 4//6 6//6 8//6
f 2//1 4//1 3//1
f 4//2 8//2 7//2
f 8//3 6//3 5//3
f 6//4 2//4 1//4
f 7//5 5//5 1//5
f 4//6 2//6 6//6
o Cube.003_Cube.005
v -1.114451 3.701946 1.301871
v -1.114451 4.222960 1.301871
v -1.114451 3.701946 -1.325113
v -1.114451 4.222960 -1.325113
v 1.192896 3.701946 1.301871
v 1.192896 4.222960 1.301871
v 1.192896 3.701946 -1.325113
v 1.192896 4.222960 -1.325113
vn -1.0000 0.0000 0.0000
vn 0.0000 0.0000 -1.0000
vn 1.0000 0.0000 0.0000
vn 0.0000 0.0000 1.0000
vn 0.0000 -1.0000 0.0000
vn 0.0000 1.0000 0.0000
s off
f 10//7 11//7 9//7
f 12//8 15//8 11//8
f 16//9 13//9 15//9
f 14//10 9//10 13//10
f 15//11 9//11 11//11
f 12//12 14//12 16//12
f 10//7 12//7 11//7
f 12//8 16//8 15//8
f 16//9 14//9 13//9
f 14//10 10//10 9//10
f 15//11 13//11 9//11
f 12//12 10//12 14//12
o Cube.001_Cube.003
v -1.365708 2.331254 1.724397
v -1.365708 2.615104 1.724397
v -1.365708 2.331254 -0.275603
v -1.365708 2.615104 -0.275603
v -0.952528 2.331254 1.724397
v -0.952528 2.615104 1.724397
v -0.952528 2.331254 -0.275603
v -0.952528 2.615104 -0.275603
vn -1.0000 0.0000 0.0000
vn 0.0000 0.0000 -1.0000
vn 1.0000 0.0000 0.0000
vn 0.0000 0.0000 1.0000
vn 0.0000 -1.0000 0.0000
vn 0.0000 1.0000 0.0000
s off
f 18//13 19//13 17//13
f 20//14 23//14 19//14
f 24//15 21//15 23//15
f 22//16 17//16 21//16
f 23//17 17//17 19//17
f 20//18 22//18 24//18
f 18//13 20//13 19//13
f 20//14 24//14 23//14
f 24//15 22//15 21//15
f 22//16 18//16 17//16
f 23//17 21//17 17//17
f 20//18 18//18 22//18
o Cube
v 1.000000 -0.023217 -1.000000
v 1.000000 -0.023217 1.000000
v -1.000000 -0.023217 1.000000
v -1.000000 -0.023217 -1.000000
v 1.000000 4.155829 -0.999999
v 0.999999 4.155829 1.000001
v -1.000000 4.155829 1.000000
v -1.000000 4.155829 -1.000000
vn 0.0000 -1.0000 0.0000
vn 0.0000 1.0000 0.0000
vn 1.0000 -0.0000 0.0000
vn 0.0000 -0.0000 1.0000
vn -1.0000 -0.0000 -0.0000
vn 0.0000 0.0000 -1.0000
s off
f 26//19 28//19 25//19
f 32//20 30//20 29//20
f 29//21 26//21 25//21
f 30//22 27//22 26//22
f 27//23 32//23 28//23
f 25//24 32//24 29//24
f 26//19 27//19 28//19
f 32//20 31//20 30//20
f 29//21 30//21 26//21
f 30//22 31//22 27//22
f 27//23 31//23 32//23
f 25//24 28//24 32//24
o Cube.002_Cube.004
v 0.921638 2.331254 1.724397
v 0.921638 2.615104 1.724397
v 0.921638 2.331254 -0.275603
v 0.921638 2.615104 -0.275603
v 1.334818 2.331254 1.724397
v 1.334818 2.615104 1.724397
v 1.334818 2.331254 -0.275603
v 1.334818 2.615104 -0.275603
vn -1.0000 0.0000 0.0000
vn 0.0000 0.0000 -1.0000
vn 1.0000 0.0000 0.0000
vn 0.0000 0.0000 1.0000
vn 0.0000 -1.0000 0.0000
vn 0.0000 1.0000 0.0000
s off
f 34//25 35//25 33//25
f 36//26 39//26 35//26
f 40//27 37//27 39//27
f 38//28 33//28 37//28
f 39//29 33//29 35//29
f 36//30 38//30 40//30
f 34//25 36//25 35//25
f 36//26 40//26 39//26
f 40//27 38//27 37//27
f 38//28 34//28 33//28
f 39//29 37//29 33//29
f 36//30 34//30 38//30
