# Blender v2.79 (sub 0) OBJ File: ''
# www.blender.org
mtllib Monster.mtl
o Cube.009
v -0.781469 2.494067 -0.333042
v -0.781469 1.958213 -0.688113
v -0.781469 1.958213 -0.333042
v -0.781469 2.494067 -0.688113
v -0.479970 1.958213 -0.688113
v -0.479970 2.494067 -0.688113
v -0.479970 1.958213 -0.333042
v -0.479970 2.494067 -0.333042
v 0.983239 -0.008022 1.000000
v -1.016761 -0.008022 -1.000000
v 0.983239 -0.008022 -1.000000
v -1.016761 1.991978 -1.000000
v 0.983238 1.991978 1.000001
v 0.983239 1.991978 -0.999999
v -1.016762 -0.008022 1.000000
v -1.016762 1.991978 1.000000
v 0.499882 2.494067 -0.333042
v 0.499882 1.958213 -0.688113
v 0.499882 1.958213 -0.333042
v 0.499882 2.494067 -0.688113
v 0.801382 1.958213 -0.688113
v 0.801382 2.494067 -0.688113
v 0.801382 1.958213 -0.333042
v 0.801382 2.494067 -0.333042
v -0.509931 2.251302 0.620254
v -0.509931 1.979587 -0.149902
v -0.509931 1.979587 0.620254
v -0.509931 2.251302 -0.149902
v 0.506630 1.979587 -0.149902
v 0.506630 2.251302 -0.149902
v 0.506630 1.979587 0.620254
v 0.506630 2.251302 0.620254
vt 0.972647 0.925445
vt 0.989635 0.951082
vt 0.972647 0.951082
vt 0.004064 0.721094
vt 0.026238 0.760505
vt 0.004064 0.760505
vt 0.989635 0.925445
vt 0.972647 0.899808
vt 0.989635 0.899808
vt 0.963010 0.015693
vt 0.985344 0.055387
vt 0.963010 0.055387
vt 0.004133 0.551496
vt 0.027232 0.524292
vt 0.027232 0.551496
vt 0.984509 0.968070
vt 0.998934 0.951082
vt 0.998934 0.968070
vt 0.989635 0.925445
vt 0.026238 0.721094
vt 0.972647 0.925445
vt 0.985344 0.015693
vt 0.004133 0.524292
vt 0.984509 0.951082
vt 0.018624 0.010511
vt 0.991456 0.990715
vt 0.014939 0.987029
vt 0.987336 0.009563
vt 0.012746 0.984153
vt 0.012746 0.009564
vt 0.014675 0.014153
vt 0.991199 0.990678
vt 0.009368 0.004811
vt 0.988028 0.983471
vt 0.009368 0.983471
vt 0.012044 0.987997
vt 0.991139 0.008903
vt 0.991139 0.987997
vt 0.989818 0.004322
vt 0.007578 0.986563
vt 0.007578 0.004323
vt 0.995142 0.014197
vt 0.987336 0.984153
vt 0.991199 0.014153
vt 0.988028 0.004811
vt 0.012044 0.008903
vt 0.989818 0.986563
vt 0.971179 0.488510
vt 0.995288 0.524894
vt 0.971179 0.524894
vt 0.940677 0.015693
vt 0.963010 0.055387
vt 0.940677 0.055387
vt 0.995288 0.488510
vt 0.971179 0.452126
vt 0.995288 0.452126
vt 0.004133 0.483237
vt 0.027232 0.524292
vt 0.004133 0.524292
vt 0.971179 0.549003
vt 0.991651 0.524894
vt 0.991651 0.549003
vt 0.970084 0.968070
vt 0.984509 0.951082
vt 0.984509 0.968070
vt 0.995288 0.488510
vt 0.963010 0.015693
vt 0.971179 0.488510
vt 0.027232 0.483237
vt 0.971179 0.524894
vt 0.970084 0.951082
vt 0.024621 0.368086
vt 0.013164 0.400559
vt 0.013164 0.368086
vt 0.024048 0.646329
vt 0.004064 0.721094
vt 0.004064 0.646329
vt 0.006415 0.483237
vt 0.027232 0.424230
vt 0.027232 0.483237
vt 0.007499 0.169861
vt 0.024232 0.107261
vt 0.024232 0.169861
vt 0.453346 0.247396
vt 0.581706 0.416823
vt 0.453346 0.416823
vt 0.097448 0.358724
vt 0.225807 0.528151
vt 0.097448 0.528151
vt 0.024621 0.400559
vt 0.024048 0.721094
vt 0.006415 0.424230
vt 0.007499 0.107261
vt 0.581706 0.247396
vt 0.225807 0.358724
vn -1.0000 -0.0000 0.0000
vn 0.0000 0.0000 -1.0000
vn 1.0000 0.0000 0.0000
vn 0.0000 -0.0000 1.0000
vn 0.0000 -1.0000 -0.0000
vn 0.0000 1.0000 0.0000
usemtl None
s 1
f 1/1/1 2/2/1 3/3/1
f 4/4/2 5/5/2 2/6/2
f 6/7/3 7/8/3 5/9/3
f 8/10/4 3/11/4 7/12/4
f 5/13/5 3/14/5 2/15/5
f 4/16/6 8/17/6 6/18/6
f 1/1/1 4/19/1 2/2/1
f 4/4/2 6/20/2 5/5/2
f 6/7/3 8/21/3 7/8/3
f 8/10/4 1/22/4 3/11/4
f 5/13/5 7/23/5 3/14/5
f 4/16/6 1/24/6 8/17/6
f 9/25/5 10/26/5 11/27/5
f 12/28/6 13/29/6 14/30/6
f 14/31/3 9/32/3 11/27/3
f 13/33/4 15/34/4 9/35/4
f 15/36/1 12/37/1 10/38/1
f 11/39/2 12/40/2 14/41/2
f 9/25/5 15/42/5 10/26/5
f 12/28/6 16/43/6 13/29/6
f 14/31/3 13/44/3 9/32/3
f 13/33/4 16/45/4 15/34/4
f 15/36/1 16/46/1 12/37/1
f 11/39/2 10/47/2 12/40/2
f 17/48/1 18/49/1 19/50/1
f 20/51/2 21/52/2 18/53/2
f 22/54/3 23/55/3 21/56/3
f 24/57/4 19/58/4 23/59/4
f 21/60/5 19/61/5 18/62/5
f 20/63/6 24/64/6 22/65/6
f 17/48/1 20/66/1 18/49/1
f 20/51/2 22/67/2 21/52/2
f 22/54/3 24/68/3 23/55/3
f 24/57/4 17/69/4 19/58/4
f 21/60/5 23/70/5 19/61/5
f 20/63/6 17/71/6 24/64/6
f 25/72/1 26/73/1 27/74/1
f 28/75/2 29/76/2 26/77/2
f 30/78/3 31/79/3 29/80/3
f 32/81/4 27/82/4 31/83/4
f 29/84/5 27/85/5 26/86/5
f 28/87/6 32/88/6 30/89/6
f 25/72/1 28/90/1 26/73/1
f 28/75/2 30/91/2 29/76/2
f 30/78/3 32/92/3 31/79/3
f 32/81/4 25/93/4 27/82/4
f 29/84/5 31/94/5 27/85/5
f 28/87/6 25/95/6 32/88/6
