# Blender v2.79 (sub 0) OBJ File: ''
# www.blender.org
mtllib Portal.mtl
o Cube.002
v 1.000000 7.918437 3.970642
v 1.000000 7.918436 -3.970642
v -1.000000 7.918436 -3.970642
v -1.000000 7.918437 3.970643
v 1.000000 5.918437 3.970640
v 0.999999 5.918436 -3.970644
v -1.000000 5.918436 -3.970640
v -1.000000 5.918437 3.970642
v 1.000000 5.999999 2.000000
v 1.000000 0.000000 2.000000
v -1.000000 0.000000 2.000000
v -1.000000 6.000000 2.000000
v 1.000000 5.999998 4.000000
v 0.999999 -0.000002 4.000000
v -1.000000 0.000001 4.000000
v -1.000000 6.000000 4.000000
v 1.000000 5.999999 -4.000000
v 1.000000 0.000000 -4.000000
v -1.000000 0.000000 -4.000000
v -1.000000 6.000000 -4.000000
v 1.000000 5.999998 -2.000000
v 0.999999 -0.000002 -2.000000
v -1.000000 0.000001 -2.000000
v -1.000000 6.000000 -2.000000
vt 1.000000 0.000000
vt 0.000000 1.000000
vt 0.000000 0.000000
vt 1.000000 0.000000
vt 0.000000 1.000000
vt 0.000000 0.000000
vt 1.000000 0.000000
vt 0.000000 1.000000
vt 1.000000 0.000000
vt 0.000000 1.000000
vt 0.000000 0.000000
vt 0.000000 0.000000
vt 1.000000 1.000000
vt 1.000000 0.000000
vt 0.000000 1.000000
vt 1.000000 1.000000
vt 1.000000 1.000000
vt 1.000000 1.000000
vt 1.000000 0.000000
vt 1.000000 1.000000
vt 0.000000 0.000000
vt 1.000000 1.000000
vt 0.000000 1.000000
vt 0.000000 0.000000
vt 1.000000 1.000000
vt 0.000000 1.000000
vt 1.000000 0.000000
vt 0.000000 1.000000
vt 1.000000 0.000000
vt 0.000000 1.000000
vt 0.000000 0.000000
vt 1.000000 0.000000
vt 0.000000 0.000000
vt 1.000000 0.000000
vt 0.000000 1.000000
vt 1.000000 0.000000
vt 1.000000 0.000000
vt 1.000000 1.000000
vt 1.000000 1.000000
vt 1.000000 1.000000
vt 0.000000 0.000000
vt 1.000000 1.000000
vt 0.000000 1.000000
vt 0.000000 0.000000
vt 1.000000 1.000000
vt 0.000000 1.000000
vt 1.000000 0.000000
vt 0.000000 1.000000
vt 1.000000 0.000000
vt 0.000000 1.000000
vt 0.000000 0.000000
vt 1.000000 0.000000
vt 0.000000 0.000000
vt 1.000000 0.000000
vt 0.000000 1.000000
vt 1.000000 0.000000
vt 1.000000 0.000000
vt 1.000000 1.000000
vt 1.000000 1.000000
vt 1.000000 1.000000
vn -0.0000 1.0000 -0.0000
vn 0.0000 -1.0000 0.0000
vn 1.0000 0.0000 -0.0000
vn -0.0000 0.0000 -1.0000
vn -1.0000 0.0000 0.0000
vn 0.0000 -0.0000 1.0000
usemtl Material.002
s off
f 2/1/1 4/2/1 1/3/1
f 8/4/2 6/5/2 5/6/2
f 5/7/3 2/8/3 1/3/3
f 6/9/4 3/10/4 2/11/4
f 3/12/5 8/13/5 4/2/5
f 1/14/6 8/15/6 5/6/6
f 2/1/1 3/16/1 4/2/1
f 8/4/2 7/17/2 6/5/2
f 5/7/3 6/18/3 2/8/3
f 6/9/4 7/17/4 3/10/4
f 3/12/5 7/19/5 8/13/5
f 1/14/6 4/20/6 8/15/6
usemtl Material
f 9/21/4 11/22/4 12/23/4
f 13/24/6 15/25/6 14/26/6
f 13/27/3 10/28/3 9/21/3
f 14/29/2 11/30/2 10/31/2
f 15/32/5 12/23/5 11/33/5
f 9/34/1 16/35/1 13/24/1
f 9/21/4 10/36/4 11/22/4
f 13/24/6 16/37/6 15/25/6
f 13/27/3 14/38/3 10/28/3
f 14/29/2 15/25/2 11/30/2
f 15/32/5 16/39/5 12/23/5
f 9/34/1 12/40/1 16/35/1
usemtl Material.001
f 17/41/4 19/42/4 20/43/4
f 21/44/6 23/45/6 22/46/6
f 21/47/3 18/48/3 17/41/3
f 22/49/2 19/50/2 18/51/2
f 23/52/5 20/43/5 19/53/5
f 17/54/1 24/55/1 21/44/1
f 17/41/4 18/56/4 19/42/4
f 21/44/6 24/57/6 23/45/6
f 21/47/3 22/58/3 18/48/3
f 22/49/2 23/45/2 19/50/2
f 23/52/5 24/59/5 20/43/5
f 17/54/1 20/60/1 24/55/1
