# Blender v2.79 (sub 0) OBJ File: ''
# www.blender.org
mtllib Tower2.mtl
o Cube.008
v -1.001209 6.133579 -0.850364
v -1.001209 4.133579 -1.000366
v -1.001209 4.133579 -0.850366
v -1.001209 6.133579 -1.000364
v -0.851209 4.133579 -1.000366
v -0.851209 6.133579 -1.000364
v -0.851209 4.133579 -0.850366
v -0.851209 6.133579 -0.850364
v 0.851006 6.133579 -0.850364
v 0.851006 4.133579 -1.000366
v 0.851006 4.133579 -0.850366
v 0.851006 6.133579 -1.000364
v 1.001006 4.133579 -1.000366
v 1.001006 6.133579 -1.000364
v 1.001006 4.133579 -0.850366
v 1.001006 6.133579 -0.850364
v -1.001209 6.133579 0.999977
v -1.001209 4.133578 0.849975
v -1.001209 4.133578 0.999975
v -1.001209 6.133579 0.849977
v -0.851209 4.133578 0.849975
v -0.851209 6.133579 0.849977
v -0.851209 4.133578 0.999975
v -0.851209 6.133579 0.999977
v 0.846047 6.133579 0.999977
v 0.846047 4.133578 0.849975
v 0.846047 4.133578 0.999975
v 0.846047 6.133579 0.849977
v 0.996047 4.133578 0.849975
v 0.996047 6.133579 0.849977
v 0.996047 4.133578 0.999975
v 0.996047 6.133579 0.999977
v 1.000000 0.009884 1.000000
v -1.000000 0.009884 -1.000000
v 1.000000 0.009884 -1.000000
v 1.000000 4.126722 -0.999999
v -1.000000 4.126721 1.000000
v 0.999999 4.126721 1.000001
v -1.000000 0.009884 1.000000
v -1.000000 4.126722 -1.000000
v 1.000000 0.009884 1.000000
v -1.000000 0.009884 -1.000000
v 1.000000 0.009884 -1.000000
v -1.000000 4.126722 -1.000000
v 0.999999 4.126721 1.000001
v 1.000000 4.126722 -0.999999
v -1.000000 0.009884 1.000000
v -1.000000 4.126721 1.000000
v -0.850000 5.511948 0.850002
v -0.850000 4.111948 -0.850000
v -0.850000 4.111948 0.850000
v -0.850000 5.511948 -0.849998
v 0.850000 4.111948 -0.850000
v 0.850000 5.511948 -0.849998
v 0.850000 4.111948 0.850000
v 0.850000 5.511948 0.850002
vt 0.693944 0.185151
vt 0.693944 0.000659
vt 0.786190 0.092905
vt 0.932465 0.224862
vt 0.932465 0.409354
vt 0.840219 0.317108
vt 0.838902 0.356635
vt 0.570369 0.487091
vt 0.570369 0.356635
vt 0.299202 0.236659
vt 0.000659 0.236659
vt 0.057664 0.119318
vt 0.570369 0.488408
vt 0.838902 0.618864
vt 0.570369 0.618864
vt 0.000659 0.237976
vt 0.299202 0.237976
vt 0.242197 0.355318
vt 0.932465 0.672900
vt 0.840219 0.580654
vt 0.932465 0.488408
vt 0.840219 0.674218
vt 0.932465 0.766464
vt 0.840219 0.858710
vt 0.569052 0.224862
vt 0.569052 0.355318
vt 0.300520 0.355318
vt 0.838902 0.620181
vt 0.838902 0.750637
vt 0.570369 0.750637
vt 0.000659 0.592636
vt 0.242197 0.475294
vt 0.299202 0.592635
vt 0.000659 0.724408
vt 0.000659 0.593953
vt 0.269191 0.593953
vt 0.431342 0.222638
vt 0.300520 0.222638
vt 0.301251 0.212881
vt 0.243319 0.940409
vt 0.112863 0.950194
vt 0.112863 0.940409
vt 0.826527 0.989557
vt 0.696071 0.999341
vt 0.696071 0.989557
vt 0.861129 0.200918
vt 0.730673 0.210702
vt 0.730673 0.200918
vt 0.295447 0.660562
vt 0.285663 0.670346
vt 0.285663 0.660562
vt 0.270508 0.620209
vt 0.280292 0.610425
vt 0.280292 0.620209
vt 0.243319 0.973714
vt 0.243319 0.983498
vt 0.112863 0.983498
vt 0.970675 0.972232
vt 0.970675 0.982016
vt 0.840219 0.982016
vt 0.959166 0.212881
vt 0.959166 0.222665
vt 0.828711 0.222665
vt 0.642475 0.958171
vt 0.642475 0.967955
vt 0.512019 0.967955
vt 0.280292 0.643729
vt 0.280292 0.653513
vt 0.270508 0.653513
vt 0.270508 0.609107
vt 0.277427 0.602189
vt 0.284345 0.609107
vt 0.563481 0.222638
vt 0.432659 0.222638
vt 0.433391 0.212881
vt 0.860762 0.189817
vt 0.730307 0.199601
vt 0.730307 0.189817
vt 0.243319 0.984816
vt 0.112863 0.994600
vt 0.112863 0.984816
vt 0.642475 0.947070
vt 0.512019 0.956854
vt 0.512019 0.947070
vt 0.295447 0.649461
vt 0.285663 0.659245
vt 0.285663 0.649461
vt 0.285663 0.614839
vt 0.295447 0.605054
vt 0.295447 0.614839
vt 0.642475 0.980374
vt 0.642475 0.990158
vt 0.512019 0.990158
vt 0.992535 0.189817
vt 0.992535 0.199601
vt 0.862080 0.199601
vt 0.243319 0.951511
vt 0.243319 0.961295
vt 0.112863 0.961295
vt 0.243319 0.962613
vt 0.243319 0.972397
vt 0.112863 0.972397
vt 0.280292 0.632628
vt 0.280292 0.642412
vt 0.270508 0.642412
vt 0.285663 0.681448
vt 0.285663 0.671664
vt 0.295447 0.671664
vt 0.729356 0.210675
vt 0.598534 0.210675
vt 0.599265 0.200918
vt 0.243319 0.929308
vt 0.112863 0.939092
vt 0.112863 0.929308
vt 0.970675 0.983333
vt 0.840219 0.993117
vt 0.840219 0.983333
vt 0.827393 0.212881
vt 0.696938 0.222665
vt 0.696938 0.212881
vt 0.295450 0.593956
vt 0.285663 0.603737
vt 0.285666 0.593953
vt 0.270508 0.664615
vt 0.280292 0.654831
vt 0.280292 0.664615
vt 0.970675 0.455078
vt 0.970675 0.464862
vt 0.840219 0.464862
vt 0.970675 0.410672
vt 0.970675 0.420456
vt 0.840219 0.420456
vt 0.970675 0.432875
vt 0.970675 0.442659
vt 0.840219 0.442659
vt 0.970675 0.421773
vt 0.970675 0.431557
vt 0.840219 0.431557
vt 0.280292 0.665932
vt 0.280292 0.675716
vt 0.270508 0.675716
vt 0.285663 0.637042
vt 0.285663 0.627257
vt 0.295447 0.627257
vt 0.695620 0.222638
vt 0.564798 0.222638
vt 0.565530 0.212881
vt 0.642475 0.935968
vt 0.512019 0.945752
vt 0.512019 0.935968
vt 0.992902 0.200918
vt 0.862446 0.210702
vt 0.862446 0.200918
vt 0.728989 0.189817
vt 0.598534 0.199601
vt 0.598534 0.189817
vt 0.280292 0.621526
vt 0.270508 0.631310
vt 0.270508 0.621526
vt 0.285663 0.648143
vt 0.295447 0.638359
vt 0.295447 0.648143
vt 0.970675 0.477281
vt 0.970675 0.487065
vt 0.840219 0.487065
vt 0.642475 0.969273
vt 0.642475 0.979057
vt 0.512019 0.979057
vt 0.970675 0.466179
vt 0.970675 0.475963
vt 0.840219 0.475963
vt 0.970675 0.443976
vt 0.970675 0.453760
vt 0.840219 0.453760
vt 0.284345 0.593953
vt 0.277427 0.600871
vt 0.270508 0.593953
vt 0.285663 0.625940
vt 0.285663 0.616156
vt 0.295447 0.616156
vt 0.600381 0.185151
vt 0.600381 0.000659
vt 0.692627 0.092905
vt 0.430975 0.751954
vt 0.300520 0.882410
vt 0.300520 0.751954
vt 0.838902 0.224862
vt 0.570369 0.355318
vt 0.570369 0.224862
vt 0.299202 0.118000
vt 0.000659 0.118000
vt 0.057664 0.000659
vt 0.599063 0.118000
vt 0.300520 0.118000
vt 0.357525 0.000659
vt 0.000659 0.356635
vt 0.299202 0.356635
vt 0.242197 0.473977
vt 0.879753 0.185151
vt 0.787507 0.092905
vt 0.879753 0.000659
vt 0.485012 0.119318
vt 0.392766 0.211564
vt 0.300520 0.119318
vt 0.569052 0.356635
vt 0.569052 0.487091
vt 0.300520 0.487091
vt 0.269191 0.725726
vt 0.269191 0.856181
vt 0.000659 0.856181
vt 0.569052 0.620181
vt 0.569052 0.750637
vt 0.300520 0.750637
vt 0.300520 0.618864
vt 0.300520 0.488408
vt 0.569052 0.488408
vt 0.736467 0.895604
vt 0.736467 0.751954
vt 0.806958 0.837551
vt 0.486361 0.119318
vt 0.597216 0.210675
vt 0.486329 0.210636
vt 0.391877 0.883759
vt 0.300520 0.994614
vt 0.300558 0.883727
vt 0.256513 0.927990
vt 0.112863 0.927990
vt 0.198461 0.857499
vt 0.622945 0.751992
vt 0.512019 0.862841
vt 0.512057 0.751954
vt 0.432293 0.908772
vt 0.432293 0.751954
vt 0.510702 0.830363
vt 0.951563 0.144308
vt 0.881071 0.058711
vt 0.951563 0.000659
vt 0.512019 0.934651
vt 0.597616 0.864159
vt 0.655668 0.934651
vt 0.931576 0.860027
vt 0.931538 0.970914
vt 0.840219 0.970883
vt 0.806958 0.988240
vt 0.696071 0.988240
vt 0.696071 0.896921
vt 0.111546 0.857499
vt 0.111546 0.968386
vt 0.000659 0.968386
vt 0.624262 0.862841
vt 0.624262 0.751954
vt 0.735149 0.751954
vn 0.0000 -1.0000 -0.0000
vn -0.0000 1.0000 0.0000
vn 1.0000 0.0000 0.0000
vn 0.0000 -0.0000 1.0000
vn -1.0000 0.0000 0.0000
vn 0.0000 0.0000 -1.0000
usemtl Material.001
s off
f 41/1/1 42/2/1 43/3/1
f 44/4/2 45/5/2 46/6/2
f 46/7/3 41/8/3 43/9/3
f 45/10/4 47/11/4 41/12/4
f 47/13/5 44/14/5 42/15/5
f 43/16/6 44/17/6 46/18/6
f 41/19/1 47/20/1 42/21/1
f 44/22/2 48/23/2 45/24/2
f 46/25/3 45/26/3 41/27/3
f 45/28/4 48/29/4 47/30/4
f 47/31/5 48/32/5 44/33/5
f 43/34/6 42/35/6 44/36/6
s 1
f 1/37/5 2/38/5 3/39/5
f 4/40/6 5/41/6 2/42/6
f 6/43/3 7/44/3 5/45/3
f 8/46/4 3/47/4 7/48/4
f 5/49/1 3/50/1 2/51/1
f 4/52/2 8/53/2 6/54/2
f 1/55/5 4/56/5 2/57/5
f 4/58/6 6/59/6 5/60/6
f 6/61/3 8/62/3 7/63/3
f 8/64/4 1/65/4 3/66/4
f 5/67/1 7/68/1 3/69/1
f 4/70/2 1/71/2 8/72/2
f 9/73/5 10/74/5 11/75/5
f 12/76/6 13/77/6 10/78/6
f 14/79/3 15/80/3 13/81/3
f 16/82/4 11/83/4 15/84/4
f 13/85/1 11/86/1 10/87/1
f 12/88/2 16/89/2 14/90/2
f 9/91/5 12/92/5 10/93/5
f 12/94/6 14/95/6 13/96/6
f 14/97/3 16/98/3 15/99/3
f 16/100/4 9/101/4 11/102/4
f 13/103/1 15/104/1 11/105/1
f 12/106/2 9/107/2 16/108/2
f 17/109/5 18/110/5 19/111/5
f 20/112/6 21/113/6 18/114/6
f 22/115/3 23/116/3 21/117/3
f 24/118/4 19/119/4 23/120/4
f 21/121/1 19/122/1 18/123/1
f 20/124/2 24/125/2 22/126/2
f 17/127/5 20/128/5 18/129/5
f 20/130/6 22/131/6 21/132/6
f 22/133/3 24/134/3 23/135/3
f 24/136/4 17/137/4 19/138/4
f 21/139/1 23/140/1 19/141/1
f 20/142/2 17/143/2 24/144/2
f 25/145/5 26/146/5 27/147/5
f 28/148/6 29/149/6 26/150/6
f 30/151/3 31/152/3 29/153/3
f 32/154/4 27/155/4 31/156/4
f 29/157/1 27/158/1 26/159/1
f 28/160/2 32/161/2 30/162/2
f 25/163/5 28/164/5 26/165/5
f 28/166/6 30/167/6 29/168/6
f 30/169/3 32/170/3 31/171/3
f 32/172/4 25/173/4 27/174/4
f 29/175/1 31/176/1 27/177/1
f 28/178/2 25/179/2 32/180/2
f 33/181/1 34/182/1 35/183/1
f 36/184/2 37/185/2 38/186/2
f 36/187/3 33/188/3 35/189/3
f 38/190/4 39/191/4 33/192/4
f 37/193/5 34/194/5 39/195/5
f 35/196/6 40/197/6 36/198/6
f 33/199/1 39/200/1 34/201/1
f 36/202/2 40/203/2 37/204/2
f 36/205/3 38/206/3 33/207/3
f 38/208/4 37/209/4 39/210/4
f 37/211/5 40/212/5 34/213/5
f 35/214/6 34/215/6 40/216/6
f 49/217/5 50/218/5 51/219/5
f 52/220/6 53/221/6 50/222/6
f 54/223/3 55/224/3 53/225/3
f 56/226/4 51/227/4 55/228/4
f 53/229/1 51/230/1 50/231/1
f 52/232/2 56/233/2 54/234/2
f 49/235/5 52/236/5 50/237/5
f 52/238/6 54/239/6 53/240/6
f 54/241/3 56/242/3 55/243/3
f 56/244/4 49/245/4 51/246/4
f 53/247/1 55/248/1 51/249/1
f 52/250/2 49/251/2 56/252/2
