# Blender v2.79 (sub 0) OBJ File: ''
# www.blender.org
mtllib Turret_top.mtl
o Cylinder
v -0.791142 0.399970 0.174725
v 1.208158 0.412515 0.140286
v -0.790584 0.351217 0.189365
v 1.208716 0.363762 0.154927
v -0.789861 0.306397 0.215015
v 1.209439 0.318942 0.180576
v -0.789001 0.267233 0.250689
v 1.210299 0.279778 0.216250
v -0.788037 0.235230 0.295015
v 1.211263 0.247775 0.260576
v -0.787005 0.211618 0.346291
v 1.212295 0.224163 0.311852
v -0.785946 0.197304 0.402545
v 1.213354 0.209849 0.368106
v -0.784901 0.192838 0.461617
v 1.214399 0.205383 0.427178
v -0.783909 0.198392 0.521235
v 1.215391 0.210937 0.486796
v -0.783008 0.213753 0.579109
v 1.216292 0.226298 0.544670
v -0.782234 0.238330 0.633015
v 1.217066 0.250875 0.598576
v -0.781616 0.271179 0.680881
v 1.217685 0.283723 0.646443
v -0.781177 0.311036 0.720868
v 1.218123 0.323581 0.686429
v -0.780935 0.356372 0.751439
v 1.218365 0.368917 0.717000
v -0.780898 0.405443 0.771419
v 1.218402 0.417988 0.736980
v -0.781069 0.456363 0.780041
v 1.218231 0.468908 0.745602
v -0.781441 0.507177 0.776972
v 1.217859 0.519722 0.742533
v -0.781999 0.555930 0.762332
v 1.217301 0.568475 0.727893
v -0.782722 0.600750 0.736682
v 1.216578 0.613295 0.702243
v -0.783583 0.639914 0.701008
v 1.215718 0.652459 0.666569
v -0.784547 0.671917 0.656682
v 1.214753 0.684462 0.622243
v -0.785578 0.695529 0.605406
v 1.213722 0.708074 0.570967
v -0.786637 0.709843 0.549152
v 1.212663 0.722388 0.514713
v -0.787683 0.714309 0.490080
v 1.211617 0.726854 0.455641
v -0.788675 0.708754 0.430462
v 1.210625 0.721299 0.396023
v -0.789575 0.693394 0.372587
v 1.209725 0.705939 0.338149
v -0.790350 0.668817 0.318682
v 1.208951 0.681362 0.284243
v -0.790968 0.635968 0.270815
v 1.208332 0.648513 0.236377
v -0.791407 0.596110 0.230829
v 1.207893 0.608655 0.196390
v -0.791649 0.550775 0.200258
v 1.207651 0.563320 0.165819
v -0.791685 0.501704 0.180278
v 1.207615 0.514249 0.145839
v -0.791514 0.450783 0.171656
v 1.207786 0.463328 0.137218
v -0.300000 0.002505 0.251237
v -0.300000 0.402505 0.251237
v -0.300000 0.002505 -0.248763
v -0.300000 0.402505 -0.248763
v 0.300000 0.002505 0.251237
v 0.300000 0.402505 0.251237
v 0.300000 0.002505 -0.248763
v 0.300000 0.402505 -0.248763
v -0.791143 0.399971 -0.728034
v 1.208158 0.412515 -0.762473
v -0.790584 0.351217 -0.713394
v 1.208716 0.363762 -0.747832
v -0.789861 0.306397 -0.687744
v 1.209439 0.318942 -0.722182
v -0.789001 0.267233 -0.652070
v 1.210299 0.279778 -0.686509
v -0.788037 0.235230 -0.607744
v 1.211264 0.247775 -0.642183
v -0.787005 0.211618 -0.556468
v 1.212295 0.224163 -0.590907
v -0.785947 0.197304 -0.500214
v 1.213354 0.209849 -0.534653
v -0.784901 0.192838 -0.441142
v 1.214399 0.205383 -0.475581
v -0.783909 0.198393 -0.381524
v 1.215391 0.210938 -0.415963
v -0.783008 0.213753 -0.323650
v 1.216292 0.226298 -0.358088
v -0.782234 0.238330 -0.269744
v 1.217066 0.250875 -0.304183
v -0.781616 0.271179 -0.221878
v 1.217685 0.283724 -0.256316
v -0.781177 0.311037 -0.181891
v 1.218123 0.323582 -0.216330
v -0.780935 0.356372 -0.151320
v 1.218366 0.368917 -0.185759
v -0.780899 0.405443 -0.131340
v 1.218402 0.417988 -0.165779
v -0.781070 0.456364 -0.122718
v 1.218231 0.468908 -0.157157
v -0.781441 0.507177 -0.125787
v 1.217859 0.519722 -0.160226
v -0.781999 0.555930 -0.140427
v 1.217301 0.568475 -0.174866
v -0.782722 0.600750 -0.166077
v 1.216578 0.613295 -0.200516
v -0.783583 0.639914 -0.201751
v 1.215718 0.652459 -0.236190
v -0.784547 0.671917 -0.246077
v 1.214753 0.684462 -0.280516
v -0.785578 0.695529 -0.297353
v 1.213722 0.708074 -0.331792
v -0.786637 0.709843 -0.353607
v 1.212663 0.722388 -0.388046
v -0.787683 0.714309 -0.412679
v 1.211618 0.726854 -0.447118
v -0.788675 0.708755 -0.472297
v 1.210626 0.721299 -0.506736
v -0.789575 0.693394 -0.530171
v 1.209725 0.705939 -0.564610
v -0.790350 0.668817 -0.584077
v 1.208951 0.681362 -0.618516
v -0.790968 0.635968 -0.631943
v 1.208332 0.648513 -0.666382
v -0.791407 0.596110 -0.671930
v 1.207894 0.608655 -0.706369
v -0.791649 0.550775 -0.702501
v 1.207651 0.563320 -0.736940
v -0.791685 0.501704 -0.722481
v 1.207615 0.514249 -0.756920
v -0.791514 0.450783 -0.731103
v 1.207786 0.463328 -0.765541
vt 1.000000 0.000000
vt 0.000000 1.000000
vt 0.000000 0.000000
vt 1.000000 0.000000
vt 0.000000 1.000000
vt 0.000000 0.000000
vt 1.000000 0.000000
vt 0.000000 1.000000
vt 0.000000 0.000000
vt 1.000000 0.000000
vt 0.000000 1.000000
vt 0.000000 0.000000
vt 1.000000 0.000000
vt 0.000000 1.000000
vt 0.000000 0.000000
vt 1.000000 0.000000
vt 0.000000 1.000000
vt 0.000000 0.000000
vt 1.000000 0.000000
vt 0.000000 1.000000
vt 0.000000 0.000000
vt 1.000000 0.000000
vt 0.000000 1.000000
vt 0.000000 0.000000
vt 1.000000 0.000000
vt 0.000000 1.000000
vt 0.000000 0.000000
vt 1.000000 0.000000
vt 0.000000 1.000000
vt 0.000000 0.000000
vt 1.000000 0.000000
vt 0.000000 1.000000
vt 0.000000 0.000000
vt 1.000000 0.000000
vt 0.000000 1.000000
vt 0.000000 0.000000
vt 1.000000 0.000000
vt 0.000000 1.000000
vt 0.000000 0.000000
vt 1.000000 0.000000
vt 0.000000 1.000000
vt 0.000000 0.000000
vt 1.000000 0.000000
vt 0.000000 1.000000
vt 0.000000 0.000000
vt 1.000000 0.000000
vt 0.000000 1.000000
vt 0.000000 0.000000
vt 1.000000 0.000000
vt 0.000000 1.000000
vt 0.000000 0.000000
vt 1.000000 0.000000
vt 0.000000 1.000000
vt 0.000000 0.000000
vt 1.000000 0.000000
vt 0.000000 1.000000
vt 0.000000 0.000000
vt 1.000000 0.000000
vt 0.000000 1.000000
vt 0.000000 0.000000
vt 1.000000 0.000000
vt 0.000000 1.000000
vt 0.000000 0.000000
vt 1.000000 0.000000
vt 0.000000 1.000000
vt 0.000000 0.000000
vt 1.000000 0.000000
vt 0.000000 1.000000
vt 0.000000 0.000000
vt 1.000000 0.000000
vt 0.000000 1.000000
vt 0.000000 0.000000
vt 1.000000 0.000000
vt 0.000000 1.000000
vt 0.000000 0.000000
vt 1.000000 0.000000
vt 0.000000 1.000000
vt 0.000000 0.000000
vt 1.000000 0.000000
vt 0.000000 1.000000
vt 0.000000 0.000000
vt 1.000000 0.000000
vt 0.000000 1.000000
vt 0.000000 0.000000
vt 1.000000 0.000000
vt 0.000000 1.000000
vt 0.000000 0.000000
vt 1.000000 0.000000
vt 0.000000 1.000000
vt 0.000000 0.000000
vt 0.990393 0.597545
vt 0.597545 0.009607
vt 0.009607 0.402455
vt 1.000000 0.000000
vt 0.000000 1.000000
vt 0.000000 0.000000
vt 1.000000 0.000000
vt 0.000000 1.000000
vt 0.000000 0.000000
vt 0.990393 0.597545
vt 0.597545 0.009607
vt 0.009607 0.402455
vt 1.000000 0.000000
vt 0.000000 1.000000
vt 0.000000 0.000000
vt 0.000000 0.000000
vt 1.000000 1.000000
vt 0.000000 1.000000
vt 0.000000 0.000000
vt 1.000000 1.000000
vt 0.000000 1.000000
vt 1.000000 0.000000
vt 0.000000 1.000000
vt 0.000000 0.000000
vt 1.000000 0.000000
vt 0.000000 0.000000
vt 1.000000 1.000000
vt 0.000000 1.000000
vt 1.000000 0.000000
vt 0.000000 1.000000
vt 0.000000 0.000000
vt 1.000000 0.000000
vt 0.000000 1.000000
vt 0.000000 0.000000
vt 1.000000 0.000000
vt 0.000000 1.000000
vt 0.000000 0.000000
vt 1.000000 0.000000
vt 0.000000 1.000000
vt 0.000000 0.000000
vt 1.000000 0.000000
vt 0.000000 1.000000
vt 0.000000 0.000000
vt 1.000000 0.000000
vt 0.000000 1.000000
vt 0.000000 0.000000
vt 1.000000 0.000000
vt 0.000000 1.000000
vt 0.000000 0.000000
vt 1.000000 0.000000
vt 0.000000 1.000000
vt 0.000000 0.000000
vt 1.000000 0.000000
vt 0.000000 1.000000
vt 0.000000 0.000000
vt 1.000000 0.000000
vt 0.000000 1.000000
vt 0.000000 0.000000
vt 1.000000 0.000000
vt 0.000000 1.000000
vt 0.000000 0.000000
vt 1.000000 0.000000
vt 0.000000 1.000000
vt 0.000000 0.000000
vt 1.000000 0.000000
vt 0.000000 1.000000
vt 0.000000 0.000000
vt 1.000000 0.000000
vt 0.000000 1.000000
vt 0.000000 0.000000
vt 1.000000 0.000000
vt 0.000000 1.000000
vt 0.000000 0.000000
vt 1.000000 0.000000
vt 0.000000 1.000000
vt 0.000000 0.000000
vt 1.000000 0.000000
vt 0.000000 1.000000
vt 0.000000 0.000000
vt 1.000000 0.000000
vt 0.000000 1.000000
vt 0.000000 0.000000
vt 1.000000 0.000000
vt 0.000000 1.000000
vt 0.000000 0.000000
vt 1.000000 0.000000
vt 0.000000 1.000000
vt 0.000000 0.000000
vt 1.000000 0.000000
vt 0.000000 1.000000
vt 0.000000 0.000000
vt 1.000000 0.000000
vt 0.000000 1.000000
vt 0.000000 0.000000
vt 1.000000 0.000000
vt 0.000000 1.000000
vt 0.000000 0.000000
vt 1.000000 0.000000
vt 0.000000 1.000000
vt 0.000000 0.000000
vt 1.000000 0.000000
vt 0.000000 1.000000
vt 0.000000 0.000000
vt 1.000000 0.000000
vt 0.000000 1.000000
vt 0.000000 0.000000
vt 1.000000 0.000000
vt 0.000000 1.000000
vt 0.000000 0.000000
vt 1.000000 0.000000
vt 0.000000 1.000000
vt 0.000000 0.000000
vt 1.000000 0.000000
vt 0.000000 1.000000
vt 0.000000 0.000000
vt 1.000000 0.000000
vt 0.000000 1.000000
vt 0.000000 0.000000
vt 0.597545 0.009607
vt 0.009607 0.402455
vt 0.402456 0.990393
vt 1.000000 0.000000
vt 0.000000 1.000000
vt 0.000000 0.000000
vt 1.000000 0.000000
vt 0.000000 1.000000
vt 0.000000 0.000000
vt 0.597545 0.009607
vt 0.009607 0.402455
vt 0.402456 0.990393
vt 1.000000 1.000000
vt 1.000000 1.000000
vt 1.000000 1.000000
vt 1.000000 1.000000
vt 1.000000 1.000000
vt 1.000000 1.000000
vt 1.000000 1.000000
vt 1.000000 1.000000
vt 1.000000 1.000000
vt 1.000000 1.000000
vt 1.000000 1.000000
vt 1.000000 1.000000
vt 1.000000 1.000000
vt 1.000000 1.000000
vt 1.000000 1.000000
vt 1.000000 1.000000
vt 1.000000 1.000000
vt 1.000000 1.000000
vt 1.000000 1.000000
vt 1.000000 1.000000
vt 1.000000 1.000000
vt 1.000000 1.000000
vt 1.000000 1.000000
vt 1.000000 1.000000
vt 1.000000 1.000000
vt 1.000000 1.000000
vt 1.000000 1.000000
vt 1.000000 1.000000
vt 1.000000 1.000000
vt 1.000000 1.000000
vt 0.402456 0.990393
vt 0.500000 1.000000
vt 0.597545 0.990393
vt 0.691342 0.961940
vt 0.777785 0.915735
vt 0.853553 0.853553
vt 0.915735 0.777785
vt 0.961940 0.691342
vt 1.000000 0.500000
vt 0.990393 0.402455
vt 0.961940 0.308658
vt 0.915735 0.222215
vt 0.853553 0.146447
vt 0.777785 0.084265
vt 0.691342 0.038060
vt 0.500000 0.000000
vt 0.402455 0.009607
vt 0.308658 0.038060
vt 0.222215 0.084265
vt 0.146446 0.146447
vt 0.084265 0.222215
vt 0.038060 0.308659
vt 0.000000 0.500000
vt 0.009607 0.597546
vt 0.038060 0.691342
vt 0.084266 0.777786
vt 0.146447 0.853554
vt 0.222215 0.915735
vt 0.308659 0.961940
vt 1.000000 1.000000
vt 1.000000 1.000000
vt 0.402456 0.990393
vt 0.500000 1.000000
vt 0.597545 0.990393
vt 0.691342 0.961940
vt 0.777785 0.915735
vt 0.853553 0.853553
vt 0.915735 0.777785
vt 0.961940 0.691342
vt 1.000000 0.500000
vt 0.990393 0.402455
vt 0.961940 0.308658
vt 0.915735 0.222215
vt 0.853553 0.146447
vt 0.777785 0.084265
vt 0.691342 0.038060
vt 0.500000 0.000000
vt 0.402455 0.009607
vt 0.308658 0.038060
vt 0.222215 0.084265
vt 0.146446 0.146447
vt 0.084265 0.222215
vt 0.038060 0.308659
vt 0.000000 0.500000
vt 0.009607 0.597546
vt 0.038060 0.691342
vt 0.084266 0.777786
vt 0.146447 0.853554
vt 0.222215 0.915735
vt 0.308659 0.961940
vt 1.000000 1.000000
vt 1.000000 0.000000
vt 1.000000 0.000000
vt 1.000000 1.000000
vt 1.000000 1.000000
vt 1.000000 1.000000
vt 1.000000 1.000000
vt 1.000000 1.000000
vt 1.000000 1.000000
vt 1.000000 1.000000
vt 1.000000 1.000000
vt 1.000000 1.000000
vt 1.000000 1.000000
vt 1.000000 1.000000
vt 1.000000 1.000000
vt 1.000000 1.000000
vt 1.000000 1.000000
vt 1.000000 1.000000
vt 1.000000 1.000000
vt 1.000000 1.000000
vt 1.000000 1.000000
vt 1.000000 1.000000
vt 1.000000 1.000000
vt 1.000000 1.000000
vt 1.000000 1.000000
vt 1.000000 1.000000
vt 1.000000 1.000000
vt 1.000000 1.000000
vt 1.000000 1.000000
vt 1.000000 1.000000
vt 1.000000 1.000000
vt 1.000000 1.000000
vt 1.000000 1.000000
vt 1.000000 1.000000
vt 0.500000 1.000000
vt 0.597545 0.990393
vt 0.691342 0.961940
vt 0.777785 0.915735
vt 0.853553 0.853553
vt 0.915735 0.777785
vt 0.961940 0.691342
vt 0.990393 0.597545
vt 1.000000 0.500000
vt 0.990393 0.402455
vt 0.961940 0.308658
vt 0.915735 0.222215
vt 0.853553 0.146447
vt 0.777785 0.084265
vt 0.691342 0.038060
vt 0.500000 0.000000
vt 0.402455 0.009607
vt 0.308658 0.038060
vt 0.222215 0.084265
vt 0.146446 0.146447
vt 0.084265 0.222215
vt 0.038060 0.308659
vt 0.000000 0.500000
vt 0.009607 0.597546
vt 0.038060 0.691342
vt 0.084266 0.777786
vt 0.146447 0.853554
vt 0.222215 0.915735
vt 0.308659 0.961940
vt 1.000000 1.000000
vt 1.000000 1.000000
vt 0.500000 1.000000
vt 0.597545 0.990393
vt 0.691342 0.961940
vt 0.777785 0.915735
vt 0.853553 0.853553
vt 0.990393 0.597545
vt 0.915735 0.777785
vt 0.961940 0.691342
vt 1.000000 0.500000
vt 0.990393 0.402455
vt 0.961940 0.308658
vt 0.915735 0.222215
vt 0.853553 0.146447
vt 0.777785 0.084265
vt 0.691342 0.038060
vt 0.500000 0.000000
vt 0.402455 0.009607
vt 0.308658 0.038060
vt 0.222215 0.084265
vt 0.146446 0.146447
vt 0.084265 0.222215
vt 0.038060 0.308659
vt 0.000000 0.500000
vt 0.009607 0.597546
vt 0.038060 0.691342
vt 0.084266 0.777786
vt 0.146447 0.853554
vt 0.222215 0.915735
vt 0.308659 0.961940
vn -0.0147 -0.2877 -0.9576
vn -0.0118 -0.4968 -0.8678
vn -0.0085 -0.6735 -0.7392
vn -0.0050 -0.8108 -0.5853
vn -0.0015 -0.9083 -0.4183
vn 0.0018 -0.9691 -0.2466
vn 0.0050 -0.9971 -0.0755
vn 0.0078 -0.9957 0.0926
vn 0.0105 -0.9665 0.2564
vn 0.0129 -0.9099 0.4147
vn 0.0149 -0.8245 0.5656
vn 0.0166 -0.7082 0.7058
vn 0.0178 -0.5591 0.8289
vn 0.0183 -0.3771 0.9260
vn 0.0180 -0.1669 0.9858
vn 0.0168 0.0604 0.9980
vn 0.0147 0.2877 0.9576
vn 0.0118 0.4968 0.8678
vn 0.0085 0.6735 0.7392
vn 0.0050 0.8108 0.5853
vn 0.0015 0.9083 0.4183
vn -0.0018 0.9691 0.2466
vn -0.0050 0.9971 0.0755
vn -0.0078 0.9957 -0.0926
vn -0.0105 0.9665 -0.2564
vn -0.0129 0.9099 -0.4147
vn -0.0149 0.8245 -0.5656
vn -0.0166 0.7082 -0.7058
vn -0.0178 0.5591 -0.8289
vn -0.0183 0.3771 -0.9260
vn 0.9998 0.0063 -0.0172
vn -0.0180 0.1668 -0.9858
vn -0.0168 -0.0604 -0.9980
vn -0.9998 -0.0063 0.0172
vn -1.0000 -0.0000 0.0000
vn 0.0000 -0.0000 -1.0000
vn 1.0000 -0.0000 -0.0000
vn 0.0000 0.0000 1.0000
vn 0.0000 -1.0000 -0.0000
vn 0.0000 1.0000 0.0000
vn 0.0180 -0.1668 0.9858
vn 0.9998 0.0062 -0.0172
usemtl None
s off
f 2/1/1 3/2/1 1/3/1
f 4/4/2 5/5/2 3/6/2
f 6/7/3 7/8/3 5/9/3
f 8/10/4 9/11/4 7/12/4
f 10/13/5 11/14/5 9/15/5
f 12/16/6 13/17/6 11/18/6
f 14/19/7 15/20/7 13/21/7
f 16/22/8 17/23/8 15/24/8
f 18/25/9 19/26/9 17/27/9
f 20/28/10 21/29/10 19/30/10
f 22/31/11 23/32/11 21/33/11
f 24/34/12 25/35/12 23/36/12
f 26/37/13 27/38/13 25/39/13
f 28/40/14 29/41/14 27/42/14
f 30/43/15 31/44/15 29/45/15
f 32/46/16 33/47/16 31/48/16
f 34/49/17 35/50/17 33/51/17
f 36/52/18 37/53/18 35/54/18
f 38/55/19 39/56/19 37/57/19
f 40/58/20 41/59/20 39/60/20
f 42/61/21 43/62/21 41/63/21
f 44/64/22 45/65/22 43/66/22
f 46/67/23 47/68/23 45/69/23
f 48/70/24 49/71/24 47/72/24
f 50/73/25 51/74/25 49/75/25
f 52/76/26 53/77/26 51/78/26
f 54/79/27 55/80/27 53/81/27
f 56/82/28 57/83/28 55/84/28
f 58/85/29 59/86/29 57/87/29
f 60/88/30 61/89/30 59/90/30
f 54/91/31 38/92/31 22/93/31
f 62/94/32 63/95/32 61/96/32
f 64/97/33 1/98/33 63/99/33
f 15/100/34 31/101/34 47/102/34
f 66/103/35 67/104/35 65/105/35
f 67/106/36 72/107/36 71/108/36
f 71/109/37 70/110/37 69/111/37
f 70/112/38 65/113/38 69/114/38
f 71/115/39 65/113/39 67/106/39
f 72/116/40 66/117/40 70/118/40
f 74/119/1 75/120/1 73/121/1
f 76/122/2 77/123/2 75/124/2
f 78/125/3 79/126/3 77/127/3
f 80/128/4 81/129/4 79/130/4
f 82/131/5 83/132/5 81/133/5
f 84/134/6 85/135/6 83/136/6
f 86/137/7 87/138/7 85/139/7
f 88/140/8 89/141/8 87/142/8
f 90/143/9 91/144/9 89/145/9
f 92/146/10 93/147/10 91/148/10
f 94/149/11 95/150/11 93/151/11
f 96/152/12 97/153/12 95/154/12
f 98/155/13 99/156/13 97/157/13
f 100/158/14 101/159/14 99/160/14
f 102/161/41 103/162/41 101/163/41
f 104/164/16 105/165/16 103/166/16
f 106/167/17 107/168/17 105/169/17
f 108/170/18 109/171/18 107/172/18
f 110/173/19 111/174/19 109/175/19
f 112/176/20 113/177/20 111/178/20
f 114/179/21 115/180/21 113/181/21
f 116/182/22 117/183/22 115/184/22
f 118/185/23 119/186/23 117/187/23
f 120/188/24 121/189/24 119/190/24
f 122/191/25 123/192/25 121/193/25
f 124/194/26 125/195/26 123/196/26
f 126/197/27 127/198/27 125/199/27
f 128/200/28 129/201/28 127/202/28
f 130/203/29 131/204/29 129/205/29
f 132/206/30 133/207/30 131/208/30
f 110/209/31 94/210/31 78/211/31
f 134/212/32 135/213/32 133/214/32
f 136/215/33 73/216/33 135/217/33
f 103/218/34 119/219/34 135/220/34
f 2/1/1 4/221/1 3/2/1
f 4/4/2 6/222/2 5/5/2
f 6/7/3 8/223/3 7/8/3
f 8/10/4 10/224/4 9/11/4
f 10/13/5 12/225/5 11/14/5
f 12/16/6 14/226/6 13/17/6
f 14/19/7 16/227/7 15/20/7
f 16/22/8 18/228/8 17/23/8
f 18/25/9 20/229/9 19/26/9
f 20/28/10 22/230/10 21/29/10
f 22/31/11 24/231/11 23/32/11
f 24/34/12 26/232/12 25/35/12
f 26/37/13 28/233/13 27/38/13
f 28/40/14 30/234/14 29/41/14
f 30/43/41 32/235/41 31/44/41
f 32/46/16 34/236/16 33/47/16
f 34/49/17 36/237/17 35/50/17
f 36/52/18 38/238/18 37/53/18
f 38/55/19 40/239/19 39/56/19
f 40/58/20 42/240/20 41/59/20
f 42/61/21 44/241/21 43/62/21
f 44/64/22 46/242/22 45/65/22
f 46/67/23 48/243/23 47/68/23
f 48/70/24 50/244/24 49/71/24
f 50/73/25 52/245/25 51/74/25
f 52/76/26 54/246/26 53/77/26
f 54/79/27 56/247/27 55/80/27
f 56/82/28 58/248/28 57/83/28
f 58/85/29 60/249/29 59/86/29
f 60/88/30 62/250/30 61/89/30
f 6/251/31 4/252/31 2/253/31
f 2/253/31 64/254/31 6/251/31
f 64/254/31 62/255/31 6/251/31
f 62/255/31 60/256/31 58/257/31
f 58/257/31 56/258/31 54/91/31
f 54/91/42 52/259/42 50/260/42
f 50/260/31 48/261/31 54/91/31
f 48/261/31 46/262/31 54/91/31
f 46/262/31 44/263/31 38/92/31
f 44/263/31 42/264/31 38/92/31
f 42/264/31 40/265/31 38/92/31
f 38/92/31 36/266/31 34/267/31
f 34/267/31 32/268/31 30/269/31
f 30/269/31 28/270/31 26/271/31
f 26/271/31 24/272/31 22/93/31
f 22/93/31 20/273/31 18/274/31
f 18/274/31 16/275/31 22/93/31
f 16/275/31 14/276/31 22/93/31
f 14/276/31 12/277/31 10/278/31
f 10/278/31 8/279/31 6/251/31
f 62/255/31 58/257/31 6/251/31
f 58/257/31 54/91/31 6/251/31
f 38/92/31 34/267/31 22/93/31
f 34/267/31 30/269/31 22/93/31
f 30/269/31 26/271/31 22/93/31
f 14/276/31 10/278/31 22/93/31
f 10/278/31 6/251/31 22/93/31
f 54/91/31 46/262/31 38/92/31
f 6/251/31 54/91/31 22/93/31
f 62/94/32 64/280/32 63/95/32
f 64/97/33 2/281/33 1/98/33
f 63/282/34 1/283/34 3/284/34
f 3/284/34 5/285/34 7/286/34
f 7/286/34 9/287/34 11/288/34
f 11/288/34 13/289/34 7/286/34
f 13/289/34 15/100/34 7/286/34
f 15/100/34 17/290/34 19/291/34
f 19/291/34 21/292/34 15/100/34
f 21/292/34 23/293/34 15/100/34
f 23/293/34 25/294/34 31/101/34
f 25/294/34 27/295/34 31/101/34
f 27/295/34 29/296/34 31/101/34
f 31/101/34 33/297/34 35/298/34
f 35/298/34 37/299/34 39/300/34
f 39/300/34 41/301/34 43/302/34
f 43/302/34 45/303/34 47/102/34
f 47/102/34 49/304/34 51/305/34
f 51/305/34 53/306/34 55/307/34
f 55/307/34 57/308/34 63/282/34
f 57/308/34 59/309/34 63/282/34
f 59/309/34 61/310/34 63/282/34
f 63/282/34 3/284/34 7/286/34
f 31/101/34 35/298/34 47/102/34
f 35/298/34 39/300/34 47/102/34
f 39/300/34 43/302/34 47/102/34
f 47/102/34 51/305/34 63/282/34
f 51/305/34 55/307/34 63/282/34
f 63/282/34 7/286/34 15/100/34
f 15/100/34 23/293/34 31/101/34
f 63/282/34 15/100/34 47/102/34
f 66/103/35 68/311/35 67/104/35
f 67/106/36 68/312/36 72/107/36
f 71/109/37 72/313/37 70/110/37
f 70/112/38 66/117/38 65/113/38
f 71/115/39 69/314/39 65/113/39
f 72/116/40 68/312/40 66/117/40
f 74/119/1 76/315/1 75/120/1
f 76/122/2 78/316/2 77/123/2
f 78/125/3 80/317/3 79/126/3
f 80/128/4 82/318/4 81/129/4
f 82/131/5 84/319/5 83/132/5
f 84/134/6 86/320/6 85/135/6
f 86/137/7 88/321/7 87/138/7
f 88/140/8 90/322/8 89/141/8
f 90/143/9 92/323/9 91/144/9
f 92/146/10 94/324/10 93/147/10
f 94/149/11 96/325/11 95/150/11
f 96/152/12 98/326/12 97/153/12
f 98/155/13 100/327/13 99/156/13
f 100/158/14 102/328/14 101/159/14
f 102/161/41 104/329/41 103/162/41
f 104/164/16 106/330/16 105/165/16
f 106/167/17 108/331/17 107/168/17
f 108/170/18 110/332/18 109/171/18
f 110/173/19 112/333/19 111/174/19
f 112/176/20 114/334/20 113/177/20
f 114/179/21 116/335/21 115/180/21
f 116/182/22 118/336/22 117/183/22
f 118/185/23 120/337/23 119/186/23
f 120/188/24 122/338/24 121/189/24
f 122/191/25 124/339/25 123/192/25
f 124/194/26 126/340/26 125/195/26
f 126/197/27 128/341/27 127/198/27
f 128/200/28 130/342/28 129/201/28
f 130/203/29 132/343/29 131/204/29
f 132/206/30 134/344/30 133/207/30
f 78/211/31 76/345/31 74/346/31
f 74/346/31 136/347/31 78/211/31
f 136/347/31 134/348/31 78/211/31
f 134/348/31 132/349/31 130/350/31
f 130/350/31 128/351/31 126/352/31
f 126/352/31 124/353/31 122/354/31
f 122/354/31 120/355/31 126/352/31
f 120/355/31 118/356/31 126/352/31
f 118/356/42 116/357/42 114/358/42
f 114/358/31 112/359/31 110/209/31
f 110/209/31 108/360/31 106/361/31
f 106/361/31 104/362/31 110/209/31
f 104/362/31 102/363/31 110/209/31
f 102/363/31 100/364/31 98/365/31
f 98/365/31 96/366/31 94/210/31
f 94/210/31 92/367/31 90/368/31
f 90/368/31 88/369/31 86/370/31
f 86/370/31 84/371/31 82/372/31
f 82/372/31 80/373/31 78/211/31
f 134/348/31 130/350/31 78/211/31
f 130/350/31 126/352/31 78/211/31
f 118/356/31 114/358/31 126/352/31
f 114/358/31 110/209/31 126/352/31
f 102/363/31 98/365/31 110/209/31
f 98/365/31 94/210/31 110/209/31
f 94/210/31 90/368/31 86/370/31
f 86/370/31 82/372/31 78/211/31
f 94/210/31 86/370/31 78/211/31
f 78/211/31 126/352/31 110/209/31
f 134/212/32 136/374/32 135/213/32
f 136/215/33 74/375/33 73/216/33
f 135/220/34 73/376/34 75/377/34
f 75/377/34 77/378/34 135/220/34
f 77/378/34 79/379/34 135/220/34
f 79/379/34 81/380/34 87/381/34
f 81/380/34 83/382/34 87/381/34
f 83/382/34 85/383/34 87/381/34
f 87/381/34 89/384/34 91/385/34
f 91/385/34 93/386/34 87/381/34
f 93/386/34 95/387/34 87/381/34
f 95/387/34 97/388/34 99/389/34
f 99/389/34 101/390/34 103/218/34
f 103/218/34 105/391/34 107/392/34
f 107/392/34 109/393/34 103/218/34
f 109/393/34 111/394/34 103/218/34
f 111/394/34 113/395/34 119/219/34
f 113/395/34 115/396/34 119/219/34
f 115/396/34 117/397/34 119/219/34
f 119/219/34 121/398/34 123/399/34
f 123/399/34 125/400/34 127/401/34
f 127/401/34 129/402/34 135/220/34
f 129/402/34 131/403/34 135/220/34
f 131/403/34 133/404/34 135/220/34
f 95/387/34 99/389/34 87/381/34
f 99/389/34 103/218/34 87/381/34
f 119/219/34 123/399/34 135/220/34
f 123/399/34 127/401/34 135/220/34
f 135/220/34 79/379/34 87/381/34
f 103/218/34 111/394/34 119/219/34
f 135/220/34 87/381/34 103/218/34
